<svg xmlns="http://www.w3.org/2000/svg" xmlns:xlink="http://www.w3.org/1999/xlink" id="Layer_1" x="0px" y="0px" width="86px" height="86px" viewBox="0 0 86 86" style="enable-background:new 0 0 86 86;" xml:space="preserve">
<style type="text/css">
	.st0{fill:#943DFA;}
	.st1{fill:#1EF0BB;}
</style>
<g>
	<path class="st0" d="M43.1,39.7c-1.7-1.1-4.1-0.7-5.3,0.9l0,0l-4.3,5.6v-5.4l6.9-2.4c0.6-0.2,0.9-0.8,0.7-1.4   c-0.2-0.6-0.8-0.9-1.4-0.7L33,38.6l2.1-4.2c0.2-0.5,0.1-1-0.3-1.3l-5.5-4.9l3.2-1.2c0.6-0.2,0.9-0.9,0.6-1.4l-1.9-5.2l3.1,2.1   c0.3,0.2,0.7,0.2,1.1,0.1c0.4-0.2,0.6-0.5,0.6-0.9l0.4-4.4l2.5,4c0.3,0.5,1,0.7,1.5,0.4c0.5-0.3,0.7-1,0.4-1.5l-4.2-6.9   c-0.3-0.4-0.7-0.6-1.2-0.5s-0.8,0.5-0.9,1L34,19.5l-4.4-2.9c-0.4-0.3-0.9-0.2-1.3,0.1c-0.4,0.3-0.5,0.8-0.4,1.3l2.7,7.4l-2,0.8   l0-3.7v0c0-1.4-0.7-2.7-1.9-3.4c-1.2-0.7-2.7-0.7-3.9,0c-0.8,0.5-1.4,1.2-1.7,2.1c-1.1-0.4-2.3-0.2-3.3,0.4   c-1.2,0.7-1.9,2.1-1.9,3.4c0,0,0,0,0,0v0.9c-1-0.3-2.1-0.1-3,0.5c-1.2,0.7-1.9,2-1.8,3.4v0l0,13.1c0,0.2,0,0.3,0,0.4v0   c-0.9,7,0.3,14.5,3.6,21.6c0,0,0,0,0,0c1,2.3,1.3,5,1,8.1c-0.1,0.8,0.5,1.5,1.3,1.6c0.1,0,0.1,0,0.2,0c0.7,0,1.3-0.5,1.4-1.3   c0.4-3.6,0-6.8-1.2-9.6c0,0,0,0,0,0s0,0,0,0c-3-6.6-4.2-13.6-3.4-20.1c0-0.3,0-0.5,0-0.8l0-13.1c0,0,0,0,0,0s0,0,0,0   c0-0.4,0.2-0.8,0.5-1c0.3-0.2,0.7-0.2,1,0c0.3,0.2,0.5,0.5,0.5,1v11.8c0,0.8,0.6,1.4,1.4,1.4c0.8,0,1.4-0.6,1.4-1.4V24.9   c0,0,0,0,0,0c0,0,0,0,0,0c0-0.4,0.2-0.8,0.5-1c0.3-0.2,0.7-0.2,1,0c0.3,0.2,0.5,0.5,0.5,0.9v0v15.3c0,0.8,0.6,1.4,1.4,1.4   c0.8,0,1.4-0.6,1.4-1.4V22.4c0,0,0,0,0,0c0,0,0,0,0,0c0-0.4,0.2-0.8,0.5-1c0.3-0.2,0.7-0.2,1,0c0.3,0.2,0.5,0.6,0.5,1v0   c0,0,0,0,0,0v17.1c0,0.8,0.6,1.4,1.4,1.4c0.8,0,1.4-0.6,1.4-1.4v-8.8l4.1,3.6l-3,5.9c-0.2,0.4-0.1,0.9,0.2,1.2   c0.2,0.2,0.5,0.4,0.8,0.4v5.1c0,0,0,0,0,0c0,1.1,0.7,2.1,1.7,2.5c0.3,0.1,0.7,0.2,1,0.2c0.8,0,1.5-0.4,2-1c0,0,0,0,0,0l4.8-6.2   c0,0,0,0,0,0c0,0,0,0,0,0c0.4-0.5,1-0.6,1.5-0.3c0.5,0.3,0.7,1,0.4,1.6l-9.5,18.3c0,0,0,0,0,0c0,0,0,0,0,0c-1.7,3.5-2.4,7.4-2,11.3   c0.1,0.7,0.7,1.3,1.4,1.3c0.1,0,0.1,0,0.2,0c0.8-0.1,1.3-0.8,1.3-1.6c-0.4-3.3,0.2-6.7,1.7-9.7l9.5-18.3v0h0   C45.4,43.1,44.9,40.8,43.1,39.7"></path>
	<path class="st1" d="M74.9,44.1l-0.5-0.6c-0.3-0.4-0.7-0.8-1-1.1c-4-4.7-7.7-10-11.3-16c0.1-0.6-0.1-1.1-0.4-1.6c0,0,0,0,0,0   c0,0,0,0,0,0l-3.2-4.3c0,0,0,0,0,0c-0.2-0.2-0.2-0.6-0.2-1c0.1-0.3,0.2-0.6,0.5-0.7h0c2.9-1.7,6.5-1.8,9.5-0.4c0,0,0,0,0,0   c0.3,0.1,0.7,0.2,1,0.2c0.4,0,0.8-0.1,1.1-0.3c0.7-0.3,1.1-0.9,1.3-1.7c0,0,0,0,0,0c0.2-0.8-0.2-1.6-0.8-2   c-3.3-2.2-7.2-3.3-11.1-3.2c-4,0.2-7.7,1.6-10.8,4.1c0,0,0,0,0,0l-6.3,4.9h0c-0.6,0.5-0.9,1.2-0.9,1.9l-6.2,3.7c0,0,0,0,0,0   c0,0,0,0,0,0c-0.6,0.3-1,0.9-1.1,1.6c-0.1,0.7,0,1.4,0.4,2v0l3.5,4.7h0c0.4,0.5,1.1,0.9,1.8,0.9c0.1,0,0.1,0,0.2,0   c0.6,0,1.2-0.2,1.7-0.7h0l0,0h0l4.9-4.9c0.3,0.1,0.6,0.2,1,0.2c0,0,0,0,0,0l2.2,0.1c0,0,0,0,0,0h0c0.3,0,0.6,0.2,0.8,0.4l1.2,1.7   c0,0,0,0,0,0c0,0,0,0,0,0c0.3,0.5,0.9,0.8,1.4,0.8c0,0,0,0,0,0c1.7,1.9,3.4,3.8,4.9,5.7c2.9,3.5,5.6,7.2,8.1,11   c0.3,0.4,0.7,0.6,1.2,0.6c0.3,0,0.5-0.1,0.8-0.2c0.7-0.4,0.8-1.3,0.4-2c-1-1.4-1.9-2.9-2.9-4.3l3-2.2c0.7,0.9,1.4,1.7,2.1,2.6   c0.3,0.4,0.7,0.8,1,1.1l0.5,0.6c0.3,0.3,0.7,0.5,1.1,0.5c0.3,0,0.7-0.1,0.9-0.3C75.3,45.6,75.4,44.7,74.9,44.1 M63.3,14.6   c-2.1,0.1-4.1,0.7-5.9,1.8c-1,0.6-1.7,1.5-1.9,2.6c-0.2,1.1,0,2.4,0.7,3.2c0,0,0,0,0,0l0,0L59,26l-5,3.9l-0.8-1.1c0,0,0,0,0,0   c0,0,0,0,0,0c-0.7-1-1.8-1.5-3-1.6c0,0,0,0,0,0l-2-0.1L48.1,27c0,0-0.1-0.1-0.1-0.1l-3.3-4.4l6-4.7c0,0,0,0,0,0c0,0,0,0,0,0   C54.4,14.9,58.9,13.8,63.3,14.6 M40.4,32.3l-3-4L43,25l2,2.7L40.4,32.3z M64.4,41.5c-1.2-1.6-2.4-3.2-3.7-4.7   c-1.4-1.7-2.9-3.4-4.4-5.1l3.9-3c2.3,3.8,4.7,7.4,7.2,10.6L64.4,41.5z"></path>
</g>
</svg>	