<svg xmlns="http://www.w3.org/2000/svg" xmlns:xlink="http://www.w3.org/1999/xlink" id="Layer_1" x="0px" y="0px" width="86px" height="86px" viewBox="0 0 86 86" style="enable-background:new 0 0 86 86;" xml:space="preserve">
<style type="text/css">
	.st0{fill:#1EF0BB;}
	.st1{fill:#943DFA;}
</style>
<g>
	<path class="st0" d="M82,69.5c-0.3-1-1-1.9-2-2.3c-2-0.8-3.2-1.4-3.4-2.5c0-0.5,0-1,0-1.4c3.9-0.3,6.5-1.5,7.6-3.7   c1.9-3.6-1.1-8-1.2-8.2c-0.3-0.5-0.9-0.7-1.5-0.6c-0.6,0.1-1,0.5-1.1,1.1c-0.9,4-4.9,4.7-6.2,4.9c-6.4-4-17.6-5.3-18.1-5.4   c-2.9-0.2-3.6-2.2-3.7-2.6c-0.3-2.1-1.2-4-2.6-5.6c-0.3-0.4-0.8-0.5-1.3-0.4c-0.5,0.1-0.9,0.4-1.1,0.8l-1.5,3.2   c-2.8,0.4-4.2,2.9-4.7,4.3l-2.7,0.5c-0.6,0.1-1.1,0.6-1.2,1.3c0,0.2-0.2,2,1,3.3c0.5,0.6,1.3,1.2,2.8,1.3c0.4,0,0.8,0.1,1.2,0.1   c-0.4,0.6-0.5,1.3-0.2,2.1c0.4,1.2,1.4,2,2.5,2c0,0,0.1,0,0.1,0c1.3,0,2.5-0.4,3.7-1c0.7,0.5,1.6,1.6,1.7,3.1   c0,0.8-0.8,1.4-2.2,1.7c-1.7,0.3-3.1,1.4-3.9,3c-0.2,0.5-0.4,1-0.4,1.5c0,0.1,0,0.2,0,0.3c-0.1,2.5,1.8,4.6,4.3,4.7   c0,0,0.1,0,0.1,0c0.1,0,0.3,0,0.4,0c0.2,0,0.4-0.1,0.6-0.1c1.4-0.5,2.2-2.1,1.8-3.5c0,0,0,0,0.1-0.1c2.6-0.2,5-1.4,6.8-3.3   c0.9-0.2,3.5-0.4,7.5,1.1c0.4,0.6,0.9,1.2,1.5,1.7c1.8,1.4,4.1,2,7,1.7c0.1,0,2-0.2,2.8,1.3c0.3,0.6,0.5,1.2,0.6,1.9   c0,0.2,0,0.4-0.1,0.6c-0.6,1.2-0.4,2.6,0.5,3.6c0.6,0.6,1.3,0.8,2.1,0.8c0.7,0,1.5-0.3,2.1-0.8c0.3-0.2,0.6-0.4,1-0.6   c1.6-0.9,2.3-2.9,1.6-4.6C82.4,70.8,82.1,69.8,82,69.5z M47.9,72.1C47.9,72.1,47.9,72.1,47.9,72.1C47.9,72.1,47.9,72.1,47.9,72.1   C47.9,72.1,47.9,72.1,47.9,72.1z M81.1,76.7c-0.5,0.3-1,0.6-1.5,1c0,0-0.1,0.1-0.1,0.1c0,0-0.1,0-0.1,0c0,0-0.1-0.1,0-0.2   c0.4-0.7,0.5-1.5,0.4-2.3c-0.1-1-0.4-2-0.9-2.9c-1.4-2.7-4.3-3.1-5.7-2.9c-5.9,0.6-6.5-3.8-6.6-4.3c-0.1-0.8-0.8-1.4-1.6-1.3   c-0.8,0.1-1.4,0.8-1.3,1.5c-2-0.5-3.6-0.7-4.8-0.7c-0.1-0.3-0.3-0.6-0.7-0.8c-0.7-0.4-1.6-0.1-2,0.5c-0.2,0.4-0.5,0.8-0.8,1.1   c0,0,0,0,0,0c-1.4,1.6-3.4,2.6-5.5,2.6c-0.4,0-0.7,0.2-1,0.4c-0.5,0.5-1.7,1.7-1.2,3.3c0,0-0.1,0-0.1,0c-0.9,0-1.6-0.8-1.6-1.7   c0,0,0-0.1,0-0.1c0-0.2,0.1-0.5,0.2-0.7c0.3-0.7,1-1.2,1.8-1.3c3-0.6,4.6-2.2,4.6-4.5c0-4-3.7-5.9-3.8-6c-0.5-0.2-1-0.2-1.5,0.1   c-0.6,0.4-1.4,0.7-2.1,0.9c0.6-0.4,1.2-0.8,1.2-0.8c0.5-0.3,0.7-0.9,0.6-1.5c-0.1-0.6-0.5-1-1.1-1.1c-1.6-0.3-3.2-0.5-4.8-0.7   c-0.5,0-0.7-0.2-0.8-0.3c0-0.1-0.1-0.1-0.1-0.2l2.2-0.4c0.5-0.1,1-0.5,1.1-1c0-0.1,0.9-3.1,3.2-3.1c0,0,0,0,0.1,0   c0.6,0,1.1-0.3,1.3-0.8l0.8-1.6c0.3,0.7,0.5,1.4,0.6,2.2c0,0,0,0.1,0,0.1c0,0.2,1.1,4.4,6.2,4.8c0.1,0,11.5,1.3,17.2,5.2   c0.2,0.2,0.5,0.2,0.8,0.2c2.1-0.1,5.8-1,8-4c0.2,0.9,0.2,1.8-0.1,2.5c-0.7,1.4-3.1,2.2-6.7,2.2c-0.4,0-0.8,0.2-1.1,0.5   c-0.3,0.3-0.4,0.7-0.3,1.1c0.1,0.9,0.2,1.8,0.2,2.8c0,0.1,0,0.1,0,0.2c0,0,0,0.1,0,0.1c0,0,0,0,0,0c0,0,0,0,0,0.1   c0.5,2.9,3.6,4.1,5.3,4.8c0.1,0,0.2,0.1,0.2,0.2c0.1,0.3,0.3,1.1,2.1,5.5C81.5,76.1,81.4,76.5,81.1,76.7z"></path>
	<g>
		<path class="st1" d="M52.2,35.4c-0.2-0.7-0.6-1.3-1-1.8l-5.9-6.4c-0.6-0.7-1.4-1.1-2.2-1.4l-8.4-2.3c-0.2-0.1-0.5-0.1-0.7-0.1    l-0.7-0.1c0.5-1.1,0.8-2.3,0.7-3.6c-0.1-1.9-0.9-3.7-2.4-5.1c-1.4-1.3-3.3-2-5.3-1.9c-1.9,0.1-3.7,0.9-5.1,2.4    c-1.3,1.4-2,3.3-1.9,5.3c0.1,1.3,0.5,2.5,1.1,3.5L19.9,24c-0.3,0.1-0.6,0.1-0.8,0.3L12.7,27L9,23.7c-2-1.7-4.9-1.5-6.6,0.5    c-0.8,0.9-1.2,2.2-1.1,3.4c0.1,1.2,0.7,2.4,1.6,3.2L8.7,36c1.3,1.2,3.3,1.5,4.9,0.8l6.6-2.8l0.6,11.5L11,50.6    c-1.9,0.9-2.9,3-2.5,5.1l2.6,14.7c0.5,2.6,3,4.3,5.5,3.9c0.2,0,0.4-0.1,0.6-0.1c2.3-0.7,3.7-3,3.3-5.4l-2-11.3l5.3-2.7l-1.4,5.6    c-0.3,1.3-0.1,2.7,0.7,3.9l9.5,13.9c0.9,1.3,2.4,2.1,3.9,2.1c1,0,1.9-0.3,2.7-0.8c2.2-1.5,2.7-4.4,1.3-6.6c0,0,0,0,0,0l-8.3-12.2    l3.1-12c0.2-0.6,0.3-1.3,0.3-1.9l-0.7-13.6l4.6,1.3l4.9,5.4c1.2,1.3,3.1,1.8,4.8,1.3c1.2-0.4,2.2-1.2,2.8-2.3    C52.5,37.8,52.6,36.6,52.2,35.4z M23.5,17.1c0.8-0.9,1.9-1.4,3.1-1.4c0.1,0,0.1,0,0.2,0c1.1,0,2.1,0.4,3,1.1    c0.9,0.8,1.4,1.9,1.4,3.1c0.1,2-1.2,3.9-3.1,4.5c-0.4,0.1-0.7,0.2-1.1,0.2c-2.4,0.1-4.5-1.8-4.6-4.2C22.3,19.1,22.7,18,23.5,17.1z     M49.4,37.6c-0.2,0.4-0.6,0.7-1.1,0.9c-0.7,0.2-1.4,0-1.9-0.5l-5.2-5.7c-0.2-0.2-0.4-0.3-0.7-0.4l-7-1.9c-0.4-0.1-0.9,0-1.3,0.3    c-0.4,0.3-0.6,0.7-0.5,1.2l0.8,15.5c0,0.3,0,0.6-0.1,0.9c0,0,0,0.1,0,0.1l-3.3,12.7c-0.1,0.4,0,0.8,0.2,1.2L38,74.4c0,0,0,0,0,0    c0.6,0.9,0.4,2.1-0.5,2.6c-0.8,0.6-2.1,0.3-2.7-0.5l-9.5-13.9c-0.3-0.5-0.4-1-0.3-1.6l2.2-8.7c0.1-0.5-0.1-1.1-0.5-1.5    c-0.4-0.4-1-0.4-1.5-0.2l-9.1,4.6c-0.6,0.3-0.9,0.9-0.8,1.5l2.2,12.3c0.2,0.9-0.4,1.9-1.3,2.2c-0.1,0-0.1,0-0.2,0.1    c-1,0.2-2-0.5-2.2-1.5l-2.6-14.7c-0.1-0.8,0.3-1.7,1-2L23,47.6c0.5-0.3,0.8-0.8,0.8-1.4L23,31.8c0-0.5-0.3-0.9-0.7-1.1    c-0.4-0.2-0.9-0.3-1.3-0.1l-8.5,3.6c-0.6,0.3-1.4,0.2-1.9-0.3l-5.9-5.3c-0.4-0.3-0.6-0.8-0.6-1.2c0-0.5,0.1-1,0.4-1.3    c0.7-0.8,1.8-0.8,2.5-0.2l4.4,3.9c0.4,0.4,1,0.5,1.5,0.3l7.3-3.1c0.1,0,0.2-0.1,0.3-0.1l2.5-0.5c1.1,0.7,2.4,1.1,3.8,1.1    c0.1,0,0.2,0,0.4,0c0.6,0,1.2-0.1,1.8-0.3c0,0,0,0,0,0c0.8-0.3,1.6-0.6,2.2-1.1l2.5,0.3c0.1,0,0.2,0,0.3,0.1l8.4,2.3    c0.3,0.1,0.6,0.3,0.9,0.5l5.9,6.4c0.2,0.2,0.3,0.4,0.4,0.7C49.6,36.7,49.6,37.2,49.4,37.6z"></path>
		<path class="st1" d="M36.2,18.3c0.1,0.7,0.7,1.2,1.4,1.2c0.1,0,0.1,0,0.2,0l3.6-0.5c0.8-0.1,1.3-0.8,1.2-1.6    c-0.1-0.8-0.8-1.3-1.6-1.2l-3.6,0.5C36.6,16.8,36.1,17.5,36.2,18.3z"></path>
		<path class="st1" d="M35.3,13.2c0.4,0,0.7-0.1,1-0.4l3.3-3.3c0.6-0.6,0.5-1.5,0-2c-0.6-0.6-1.5-0.5-2,0l-3.3,3.3    c-0.6,0.6-0.5,1.5,0,2C34.6,13.1,34.9,13.2,35.3,13.2z"></path>
		<path class="st1" d="M29.1,11.3C29.1,11.3,29.1,11.3,29.1,11.3c0.8,0,1.5-0.6,1.5-1.4l0.1-3.1c0-0.8-0.6-1.5-1.4-1.5    c0,0,0,0-0.1,0c-0.8,0-1.4,0.6-1.4,1.4l-0.1,3.1C27.6,10.6,28.3,11.3,29.1,11.3z"></path>
	</g>
</g>
</svg>