<svg xmlns="http://www.w3.org/2000/svg" xmlns:xlink="http://www.w3.org/1999/xlink" id="Layer_1" x="0px" y="0px" width="86px" height="86px" viewBox="0 0 86 86" style="enable-background:new 0 0 86 86;" xml:space="preserve">
<style type="text/css">
	.st0{fill:#943DFA;}
	.st1{fill:#1EF0BB;}
</style>
<g>
	<path class="st0" d="M68.9,21.7c-0.4,0-0.8,0-1.3,0c-6.6,0-13.3,0-19.9,0h-1.5c0-1.9-0.1-2,0-3.5c1.7-1.5,2.3-3.5,2.3-4.6   c0.2-2.5-1.5-4.7-4-5.4c-2.4-0.7-5,0.3-6.3,2.5c-1.3,2.2-0.9,4.8,0.9,6.7c0.3,0.3,0.7,0.7,0.8,1.1c0.1,1,0,2.1,0,3.3h-2.1   c-6.7,0-13.4,0-20.1,0c-2,0-3.2,1.1-3.2,2.8c0,1.7,1.2,2.9,3.2,2.9c0.6,0,1.1,0,1.7,0c0,0,0,0,0,0h17.7v0.1h2.7v38.2   c-0.2,0.1-0.2,0.1-0.3,0.1c-2.2,0-4.3,0-6.5,0c-2.5,0-3.8,1.3-3.9,3.7c0,0.4,0,0.8-0.1,1.3c-0.4,0-0.7,0.1-1.1,0.1   c-2.6,0.1-3.8,1.3-3.8,3.9c0,0.5,0,0.9,0,1.4c0,1.7,0.2,1.9,2,1.9c10.7,0,21.3,0,32,0c3.9,0,3.7,0.6,3.6-3.9c0-1.9-1.3-3.1-3.2-3.2   c-0.5,0-1.1-0.1-1.8-0.1c0-0.5,0-1,0-1.4c-0.1-2.3-1.3-3.6-3.6-3.6c-1,0-2,0-3,0h-4.2c0-4.2,0-8.2,0-12.2c0-5.7,0-11.5,0-17.2   c0-0.7-0.2-1.3-1.1-1.3c-1-0.1-0.9,0.6-1,1.3c0,0.5,0,0.7,0,1v26.8v1.5h-2V64c0-12.3,0-24.6,0-36.9c0-1.7-0.2-1.9-2-1.9   c-4.6,0-9.1,0-13.7,0c-2.9,0-5.8,0-8.7,0c-0.4,0-1-0.2-1-0.7c0-0.6,0.7-0.6,1-0.7c0.7-0.1,1.4,0,2.1,0c6.7,0,13.5,0,20.2,0   c1.8,0,2-0.2,2-2c0-0.9,0-1.8,0-2.7h2c0,1,0,1.8,0,2.7c0,1.9,0.2,2.1,2.1,2.1c7.3,0,14.6,0,22,0c0.4,0,1.2,0.1,1.2,0.7   c0,0.7-0.8,0.7-1.2,0.7c-1.9,0.1-3.8,0-5.8,0c-5.5,0-11,0-16.4,0c-1.6,0-1.9,0.2-1.9,1.9c0,1.2,0,2.3,0,3.5c0,0.7,0.1,1.4,1,1.4   c0.9,0,1-0.6,1-1.4c0-1.1,0-2.1,0-3.2h4v-0.1h17.5c0.5,0,1,0,1.5-0.1c1.5-0.2,2.5-1.4,2.5-2.8C71.4,23,70.4,21.9,68.9,21.7    M52.3,67.9c2.4,0,2.7,0.4,2.4,3c-0.4,0-0.9,0.1-1.3,0.1c-4.4,0-8.9,0-13.3,0c-0.5,0-1-0.1-1.4,0.1c-0.3,0.2-0.7,0.7-0.7,1   c0,0.3,0.4,0.7,0.7,0.8c0.4,0.2,0.9,0.1,1.4,0.1c5.9,0,11.7,0,17.6,0c0.6,0,1.5,0.3,1.8,0.7c0.9,1.2,0.2,2.3-1.3,2.3   c-10.2,0-20.3,0-30.5,0c-0.6,0-1.5,0.3-1.5-0.9c0-1.5,0.3-2.1,1.5-2.1c1.8-0.1,3.5,0,5.3,0c0.8,0,2,0.3,2.1-1c0-1.4-1.2-1-2.1-1.1   c-0.5,0-1.1,0-1.7,0c-0.3-2.7,0-3,2.4-3C40,67.9,46.1,67.9,52.3,67.9 M42.9,16.8c-1.8-0.1-3.3-1.7-3.3-3.5c0-1.9,1.6-3.4,3.5-3.4   c1.9,0,3.4,1.6,3.4,3.5C46.4,15.3,44.7,16.9,42.9,16.8"></path>
	<path class="st1" d="M33.7,49.2c-0.5-0.3-1-0.7-1.2-1.2c-3-6.5-6-13.1-8.9-19.7c-0.1-0.3-0.2-0.6-0.3-0.9H19c0,0.2,0,0.3-0.1,0.4   c-3.1,6.9-6.2,13.7-9.4,20.6C9.4,48.7,9,49,8.6,49.2c-1,0.5-1.3,1.2-0.8,2.1c0.5,1.1,1.1,2.2,1.7,3.2c0.8,1.5,2,2.3,3.7,2.3   c5.2,0,10.5,0,15.7,0c1.5,0,2.7-0.6,3.5-1.9c0.7-1.2,1.4-2.5,2-3.8C34.8,50.4,34.6,49.7,33.7,49.2 M20.9,28.3c0.1,0,0.2,0,0.4,0   c3.1,6.8,6.2,13.7,9.4,20.7H11.5C14.7,42,17.8,35.2,20.9,28.3 M30.6,53.9c-0.4,0.5-1.1,0.8-1.7,0.8c-5.2,0.1-10.5,0.1-15.7,0   c-0.6,0-1.3-0.5-1.7-1c-0.6-0.7-0.9-1.6-1.3-2.5H32C31.5,52.3,31.2,53.2,30.6,53.9"></path>
	<path class="st1" d="M77.5,49.2c-0.5-0.3-1-0.7-1.2-1.2c-3-6.5-6-13.1-9-19.7c-0.1-0.3-0.2-0.6-0.3-0.9h-4.3c0,0.2,0,0.3-0.1,0.4   c-3.1,6.9-6.2,13.7-9.4,20.6c-0.1,0.3-0.5,0.6-0.9,0.8c-1,0.5-1.3,1.2-0.8,2.1c0.5,1.1,1.1,2.2,1.7,3.2c0.8,1.5,2,2.3,3.7,2.3   c5.2,0,10.5,0,15.7,0c1.5,0,2.7-0.6,3.5-1.9c0.7-1.2,1.4-2.5,2-3.8C78.6,50.4,78.4,49.7,77.5,49.2 M64.7,28.3c0.1,0,0.2,0,0.4,0   c3.1,6.8,6.2,13.7,9.4,20.7H55.4C58.5,42,61.6,35.2,64.7,28.3 M74.4,53.9c-0.4,0.5-1.1,0.8-1.7,0.8c-5.2,0.1-10.5,0.1-15.7,0   c-0.6,0-1.3-0.5-1.7-1c-0.6-0.7-0.9-1.6-1.3-2.5h21.9C75.3,52.3,75,53.2,74.4,53.9"></path>
</g>
</svg>