<svg xmlns="http://www.w3.org/2000/svg" xmlns:xlink="http://www.w3.org/1999/xlink" id="Layer_1" x="0px" y="0px" width="86px" height="86px" viewBox="0 0 86 86" style="enable-background:new 0 0 86 86;" xml:space="preserve">
<style type="text/css">
	.st0{fill:#1EF0BB;}
	.st1{fill:#943DFA;}
</style>
<g>
	<path class="st0" d="M49,72c-0.8-0.8-2-0.8-2.9-0.1l0.3,0.3c0,0,0,0,0,0l0,0c0,0,0,0,0,0l-0.3-0.3c-7,6.6-18,6.3-24.6-0.7   c-6.3-6.7-6.3-17.1-0.1-23.8c0.8-0.8,0.8-2.1,0-2.9c-0.8-0.8-2.1-0.8-2.9,0.1c-3.9,4.2-6,9.6-5.8,15.4c0.2,5.7,2.6,11,6.8,15   c3.9,3.7,9,5.7,14.4,5.8h0.3h0c5.5,0,10.7-2.1,14.7-5.9c0.4-0.4,0.6-0.9,0.6-1.4C49.6,72.9,49.4,72.4,49,72z"></path>
	<g>
		<path class="st1" d="M34.5,13.4c0-4.5-3.7-8.2-8.2-8.2c-4.5,0-8.2,3.7-8.2,8.2c0,4.5,3.7,8.2,8.2,8.2    C30.8,21.6,34.5,17.9,34.5,13.4z M26.3,9.3c2.3,0,4.1,1.8,4.1,4.1c0,2.2-1.8,4.1-4.1,4.1c-2.3,0-4.1-1.8-4.1-4.1    C22.2,11.2,24.1,9.3,26.3,9.3z"></path>
		<path class="st1" d="M71.4,66.5L71.4,66.5c-1.6-1.5-3.9-2.1-6-1.4l-2.4,0.7l-3.6-8.7c-0.5-1.1-1.5-1.9-2.7-1.9l-2.5-6.1    c-0.2-0.5-0.5-0.9-0.8-1.3c0.1-0.1,0.2-0.2,0.2-0.4c1.4-2.3,0.6-5.3-1.7-6.7c-0.8-0.5-1.7-0.7-2.7-0.7h-12L34,27.5    c-0.9-3.6-4.6-5.8-8.3-4.9c-3.4,0.9-5.6,4.1-5.1,7.6L23.3,48c0.8,5.7,5.8,10,11.6,10h0h11.4l0.5,1.2c-0.3,0.3-0.5,0.6-0.6,1    c-0.3,0.8-0.3,1.6,0,2.3l5.8,14c0.9,2.1,2.9,3.5,5.2,3.5c0.5,0,1-0.1,1.5-0.2l10-2.8c2.1-0.6,3.8-2.3,4.4-4.4    C73.6,70.4,73,68.1,71.4,66.5z M55.4,75l0.4-0.1l-5.4-13.1l5.5-2.2l3.4,8.4l0,0.1c0.7,1.5,2.4,2.3,4,1.9l3.2-0.9    c0.7-0.2,1.5,0,2,0.5c0.5,0.5,0.7,1.3,0.6,2c-0.2,0.7-0.8,1.3-1.5,1.5l-10,2.8c-0.7,0.2-1.5-0.2-1.8-0.9L55.4,75L55.4,75z     M24.8,29.6c-0.2-1.4,0.8-2.8,2.2-3.1c1.4-0.3,2.8,0.6,3.1,2l3.2,12.7c0,0.1,0,0.2,0.1,0.3c0.5,1.5,1.8,2.6,3.4,2.6l0.1,0l12.4,0    c0.3,0,0.6,0.1,0.8,0.4c0.2,0.3,0.2,0.6,0,0.9c-0.2,0.3-0.5,0.5-0.8,0.5h-8.4c-1.1,0-2,0.9-2,2c0,1.1,0.9,2,2,2h8.4    c0.5,0,0.9,0.3,1.1,0.7l2.4,5.8l-2.2,0.9L50,56.2c-0.6-1.4-1.9-2.3-3.4-2.3H34.9h0c-3.8,0-7-2.8-7.5-6.5L27,47.4c0,0,0,0,0,0l0,0    l0.4-0.1L24.8,29.6z"></path>
	</g>
</g>
</svg>