<svg xmlns="http://www.w3.org/2000/svg" xmlns:xlink="http://www.w3.org/1999/xlink" id="Layer_1" x="0px" y="0px" width="86px" height="86px" viewBox="0 0 86 86" style="enable-background:new 0 0 86 86;" xml:space="preserve">
<style type="text/css">
	.st0{fill:#1EF0BB;}
	.st1{fill:#943DFA;}
</style>
<g>
	<path class="st0" d="M17,49c1.4,1.8,3.5,2.9,5.8,3c0.1,0,0.2,0,0.3,0c0.6,0,1.2-0.1,1.8-0.3c1-0.3,1.9-1.1,2.3-2   c0.8-1.8,0.4-3.8-0.9-5.2c-1.2-1.4-3-2.4-4.8-2.6c-0.4-0.1-0.9-0.1-1.3-0.1c-1.3,0-2.6,0.7-3.5,1.7c-0.8,1-1,2.3-0.7,3.6   C16.2,47.8,16.5,48.5,17,49 M19.4,45.6c0.3-0.2,0.6-0.4,1-0.4c0.1,0,0.1,0,0.2,0c0.1,0,0.2,0,0.4,0c1.1,0.2,2.1,0.7,2.8,1.5   c0.4,0.4,0.7,1.1,0.5,1.5c-0.1,0.2-0.3,0.3-0.4,0.3c-0.3,0.1-0.6,0.1-0.9,0.1c-1.3-0.1-2.4-0.7-3.2-1.7c-0.2-0.2-0.3-0.5-0.4-0.8   C19.2,46,19.2,45.8,19.4,45.6"></path>
	<path class="st0" d="M61.9,54.6c-0.6-0.7-1.6-1.1-2.6-0.9l-4.8,1l-0.7-4.3v0v0c0,0,0,0,0-0.1c0,0,0-0.1,0-0.1   c-0.1-0.5-0.5-1-0.9-1.3c-0.5-0.3-1-0.5-1.6-0.4c0,0-0.1,0-0.1,0l0,0l0,0c0,0-0.1,0-0.1,0s0,0-0.1,0c0,0,0,0-0.1,0c0,0-0.1,0-0.1,0   l0,0l-4.4,1.9l0.6-4.7c0.1-1.1-0.6-2.2-1.6-2.5l-5.8-1.8l1.8-1.9c0.1-0.1,0.1-0.1,0.2-0.2l1.7-1.7l0,0c0.8-0.8,0.9-2.1,0.2-3l-3-4   l3.8-0.3h0c1.2-0.1,2.1-1.1,2.1-2.3v-7.9l0.3,0.3c0.7,0.7,1.7,0.6,2.4,0c0.6-0.7,0.6-1.7,0-2.4l-2.1-2l0,0   c-0.6-0.7-1.6-0.8-2.5-0.5c-0.9,0.4-1.5,1.2-1.5,2.2V21H23.1c-2.1,0-3.9,1.3-4.7,3.2l-5.1,13.2l-0.2-0.2c0.9-2.2-0.1-4.7-2.3-5.6   c-2.2-0.9-4.7,0.1-5.6,2.3c-0.9,2.2,0.1,4.7,2.3,5.6c1.3,0.5,2.7,0.4,3.9-0.3l0.9,0.8L11.6,42c-0.6,0.9-1,1.8-1.3,2.8v0v0v0v0   c-1.7,5.5-0.6,11.4,3,15.9c0.8,1.1,2,1.8,3.3,2.2v4.6c0,1.8,1.4,3.2,3.2,3.2h3.9c1.7,0,3.2-1.4,3.2-3.2v-4.3h19.7v4.3   c0,1.8,1.4,3.2,3.2,3.2h3.9c1.7,0,3.2-1.4,3.2-3.2V63c1.3-0.4,2.5-1.1,3.3-2.2c0.8-0.9,1.4-1.9,1.9-3c0.1-0.2,0.2-0.4,0.2-0.5   C62.7,56.3,62.6,55.3,61.9,54.6 M7.7,35.5c0-0.9,0.7-1.7,1.6-1.7c0.9,0,1.7,0.7,1.7,1.6c0,0.3-0.1,0.7-0.3,1   c-0.1,0.1-0.1,0.1-0.2,0.2c-0.7,0.6-1.7,0.6-2.3,0C7.8,36.3,7.7,35.9,7.7,35.5 M42.9,27.1l-4.6,0.4c-0.8,0-1.6,0.5-1.9,1.2   c-0.4,0.8-0.3,1.7,0.2,2.5l3.6,4.8l-0.7,0.7H21.3c-1.5,0-3,0.3-4.4,0.9l4.7-12.2c0.2-0.6,0.8-1,1.5-1h19.8V27.1z M13.5,45.9   L13.5,45.9L13.5,45.9c1-3.4,4.2-5.8,7.8-5.8h14.8l-0.3,0.3v0c-0.5,0.5-0.7,1.3-0.6,2c0.1,0.7,0.5,1.3,1.1,1.7l0,0   c0,0,0.1,0,0.1,0.1l0,0c0,0,0.1,0,0.1,0.1l6.8,2.1l-0.7,5.6c-0.1,0.8,0.3,1.7,1,2.1c0.4,0.3,0.9,0.5,1.4,0.5c0.3,0,0.6-0.1,0.9-0.2   l4.7-2l0.7,4v0v0c0,0,0,0,0,0c0,0,0,0.1,0,0.1c0.2,0.5,0.5,1,1,1.3c0.4,0.3,0.9,0.4,1.4,0.4c0.1,0,0.3,0,0.4,0l4.4-0.9   c-0.3,0.5-0.6,0.9-1,1.4C57,59.4,56,59.9,55,59.9H18.5c-1,0-1.9-0.5-2.5-1.2C13,55.1,12.1,50.3,13.5,45.9 M23.5,67.3H20v-4.1h3.5   V67.3z M53.5,67.3H50v-4.1h3.5V67.3z"></path>
	<path class="st1" d="M80.1,58.4L80.1,58.4c0.8-1.2,1.1-2.7,0.7-4.1l-2.2-8.5c-0.1-0.3-0.1-0.6,0-0.9c3-7.5-0.6-16-8.1-19   c-1.4-0.6-2.9-0.9-4.5-1c-0.7,0-1.4,0.1-1.9,0.5l0,0l-3.4,2.1c-0.5,0.3-1,0.8-1.3,1.4v0L56,35.9v0v0c-0.3,0.6-0.4,1.2-0.3,1.9   L57.3,49c0.1,1,0.7,1.9,1.5,2.5c0.7,0.5,1.5,0.7,2.3,0.7c0.2,0,0.4,0,0.5,0c2.1-0.3,3.5-2.2,3.2-4.3l-1.4-10v0l1.2-2.4   c2.2,1,3.8,3,4.2,5.3c0.1,0.4,0,0.7-0.1,1.1c0,0,0,0,0,0c0,0,0,0,0,0c-0.7,1.4-1,3.1-0.7,4.7c0.3,1.6,1.1,3,2.3,4.1   c0.2,0.2,0.3,0.4,0.4,0.6l1.3,3l-6.4,8.9c0,0,0,0,0,0.1c0,0,0,0,0,0l0,0l0,0c-1,1.8-0.6,4,1,5.3c0.7,0.6,1.7,0.9,2.6,1   c1,0,2-0.4,2.8-1.1l0,0l0,0c0,0,0,0,0.1-0.1c0,0,0,0,0,0l8.1-9.9C80,58.5,80,58.5,80.1,58.4C80,58.5,80,58.5,80.1,58.4   C80.1,58.4,80.1,58.4,80.1,58.4 M68.3,65.2l6.3-8.8c0.6-0.8,0.8-1.9,0.5-2.9c0,0,0-0.1,0-0.1c0,0,0-0.1,0-0.1l-1.4-3.2v0   c-0.3-0.7-0.7-1.2-1.2-1.7c-1.3-1.2-1.7-3.2-0.8-4.8c0.5-1,0.7-2.1,0.5-3.2c-0.7-4-3.5-7.2-7.4-8.3c-1.1-0.3-2.2,0.2-2.7,1.2   c0,0,0,0,0,0l-1.6,3.2v0v0c-0.3,0.6-0.4,1.2-0.3,1.9l1.4,10c0,0.2-0.1,0.5-0.4,0.5l0,0c-0.1,0-0.3,0-0.4-0.1   c-0.1-0.1-0.1-0.2-0.2-0.3l-1.6-11.2c0,0,0,0,0,0l3.4-7.1l0,0l3.4-2.1c6.2,0.4,10.9,5.8,10.5,12c-0.1,1.2-0.3,2.4-0.8,3.5   c0,0,0,0,0,0c0,0,0,0,0,0c-0.3,0.9-0.4,2-0.1,2.9l2.2,8.5c0.1,0.5,0,0.9-0.2,1.3l-8,9.8c-0.3,0.2-0.6,0.2-0.9-0.1   C68.2,66,68.1,65.6,68.3,65.2"></path>
	<path class="st1" d="M24.6,55.6c0,0.9,0.8,1.7,1.7,1.7h14.8c0.9,0,1.7-0.8,1.7-1.7c0-0.9-0.8-1.7-1.7-1.7H26.3   C25.4,53.9,24.6,54.7,24.6,55.6"></path>
	<path class="st1" d="M57,27.1c3.1,0,5.6-2.5,5.6-5.6s-2.5-5.6-5.6-5.6c-3.1,0-5.6,2.5-5.6,5.6C51.4,24.6,53.9,27.1,57,27.1    M57,19.2c1.2,0,2.3,1,2.3,2.3s-1,2.3-2.3,2.3c-1.2,0-2.3-1-2.3-2.3C54.8,20.2,55.8,19.2,57,19.2"></path>
</g>
</svg>