
<svg xmlns="http://www.w3.org/2000/svg" xmlns:xlink="http://www.w3.org/1999/xlink" id="Layer_1" x="0px" y="0px" width="86px" height="86px" viewBox="0 0 86 86" style="enable-background:new 0 0 86 86;" xml:space="preserve">
<style type="text/css">
	.st0{fill:#1EF0BB;}
	.st1{fill:#943DFA;}
</style>
<g>
	<path class="st0" d="M68,71.5L68,71.5l-4.5-2.8c-1.1-0.7-2.4-1-3.7-0.8h0l-5.3,0.7h0c-1.8,0.2-3.4,1.3-4.3,2.9l-4,7.5l0,0l0,0   c0,0.1-0.1,0.1-0.1,0.2c0,0,0,0,0,0c0,0,0,0.1,0,0.1c0,0,0,0.1,0,0.1c0,0,0,0.1,0,0.1c0,0,0,0.1,0,0.1c0,0,0,0,0,0.1   c0,0.1,0,0.1,0,0.2v0c0,0.1,0,0.1,0,0.2c0,0,0,0,0,0c0,0,0,0.1,0,0.1c0,0,0,0.1,0,0.1c0,0,0,0,0,0c0,0,0,0.1,0,0.1c0,0,0,0,0,0   c0,0,0,0.1,0.1,0.1c0,0,0,0,0,0.1s0,0.1,0,0.1c0,0,0,0.1,0,0.1c0,0,0,0,0,0.1c0,0,0,0.1,0.1,0.1c0,0,0,0,0,0c0,0,0.1,0.1,0.1,0.1   c0,0,0,0,0,0c0,0,0.1,0.1,0.1,0.1c0,0,0.1,0.1,0.1,0.1c0.1,0,0.1,0.1,0.2,0.1c0,0,0.1,0,0.1,0.1l0,0c0,0,0.1,0,0.1,0.1l0,0   c0,0,0.1,0,0.2,0l0,0c0.1,0,0.1,0,0.2,0h0c0.1,0,0.1,0,0.2,0h21c0.1,0,0.1,0,0.2,0l0,0c0,0,0.1,0,0.1,0c0,0,0,0,0.1,0   c0,0,0.1,0,0.1,0c0,0,0,0,0.1,0c0,0,0.1,0,0.1,0c0,0,0.1,0,0.1,0c0,0,0.1,0,0.1,0c0,0,0,0,0.1,0c0,0,0.1,0,0.1,0c0,0,0,0,0.1-0.1   c0,0,0.1,0,0.1-0.1c0,0,0,0,0.1-0.1c0,0,0,0,0.1-0.1c0,0,0,0,0.1-0.1c0,0,0,0,0.1-0.1c0,0,0,0,0-0.1c0,0,0-0.1,0.1-0.1   c0,0,0,0,0-0.1c0,0,0-0.1,0-0.1c0,0,0-0.1,0-0.1c0,0,0-0.1,0-0.1c0,0,0-0.1,0-0.1c0,0,0-0.1,0-0.1c0,0,0-0.1,0-0.1c0,0,0-0.1,0-0.1   c0,0,0-0.1,0-0.1c0,0,0-0.1,0-0.1c0,0,0-0.1,0-0.1s0-0.1,0-0.1l0-3.5v0C70.7,74.4,69.6,72.5,68,71.5 M53.4,73.2L53.4,73.2   c0.3-0.6,0.9-0.9,1.5-1l5.3-0.7h0c0.4-0.1,0.9,0,1.3,0.3l4.5,2.8c0.6,0.4,0.9,1,0.9,1.7v0l0,1.6h-16L53.4,73.2z"></path>
	<path class="st1" d="M65.7,24.4c4.6,0,8.3-3.7,8.3-8.3c0-4.6-3.7-8.3-8.3-8.3c-4.6,0-8.3,3.7-8.3,8.3   C57.4,20.6,61.1,24.4,65.7,24.4 M65.7,11.4c2.5,0,4.6,2.1,4.6,4.6c0,2.5-2.1,4.6-4.6,4.6c-2.5,0-4.6-2.1-4.6-4.6   C61.1,13.5,63.2,11.4,65.7,11.4"></path>
	<path class="st1" d="M83.8,25.7c-1.7-2.2-5-2.7-7.2-1l0,0l0,0L68,31.2L62.8,29c-0.7-0.3-1.3-0.7-1.9-1.3l-7.8-8.5   c-1.9-2-4.5-3.3-7.3-3.4l-12.1-0.5L28,6.6l0,0l0,0c-1.6-2.3-4.8-3-7.1-1.4c-2.3,1.6-2.9,4.7-1.4,7.1v0l6.2,9.3   c1.6,2.3,4.1,3.7,6.9,3.9l1.7,0.1L24.3,32c-2.9,1.9-4.6,5.1-4.7,8.5l-0.2,10.3l-14,3.4c0,0,0,0-0.1,0c0,0,0,0-0.1,0l0,0l0,0   c-3,1-4.6,4.2-3.6,7.1c0.9,2.7,3.6,4.3,6.3,3.8h0c0,0,0.1,0,0.1,0l17-4.1c0,0,0,0,0.1,0c3.9-0.9,6.6-4.4,6.7-8.3c0-0.1,0-0.3,0-0.4   l0-1l3.6,8.2l-3.1,14.8v0c0,0,0,0,0,0c-0.6,3,1.4,6,4.4,6.6c0.4,0.1,0.8,0.1,1.2,0.1c2.6,0,4.9-1.8,5.5-4.4v0c0,0,0,0,0,0l3.7-17.3   c0.4-1.8,0.2-3.6-0.6-5.3l-4.6-10.5L53,36.1l12.5,5.4c0.9,0.4,1.9,0.6,2.9,0.6c1.6,0,3.2-0.5,4.5-1.5l9.9-7.6l0,0l0,0   C85,31.2,85.5,28,83.8,25.7 M67,38L67,38l-12.5-5.4c-1.1-0.5-2.4-0.4-3.5,0.3l-11.5,7.6c-1.5,0.9-2,2.8-1.3,4.4l4.7,10.6   c0.4,1,0.5,2,0.3,3l-3.6,17.3c-0.2,1-1.2,1.7-2.3,1.5c-1-0.2-1.7-1.2-1.5-2.3L39,59.8c0,0,0,0,0,0c0,0,0-0.1,0-0.1c0,0,0,0,0-0.1   c0,0,0-0.1,0-0.1c0,0,0-0.1,0-0.1c0,0,0-0.1,0-0.1c0,0,0-0.1,0-0.1c0,0,0-0.1,0-0.1c0,0,0-0.1,0-0.1c0,0,0-0.1,0-0.1   c0,0,0-0.1,0-0.1s0,0,0-0.1c0,0,0-0.1,0-0.1c0,0,0,0,0,0l-5.2-11.9v0c-0.7-1.5-2.4-2.2-3.9-1.5c-1,0.5-1.7,1.5-1.8,2.6l-0.1,4.9   c0,0.1,0,0.2,0,0.3c-0.2,2.2-1.7,3.9-3.8,4.4c0,0,0,0-0.1,0L7.1,61.6C6.1,61.7,5.1,61,4.9,60c-0.2-1,0.4-1.9,1.3-2.2l15.3-3.7l0,0   c0,0,0.1,0,0.1,0l0.1,0c0,0,0.1,0,0.1,0c0,0,0.1,0,0.1,0c0,0,0.1,0,0.1,0c0,0,0.1,0,0.1,0l0.1,0c0,0,0.1,0,0.1-0.1l0.1,0   c0,0,0.1,0,0.1-0.1c0,0,0,0,0.1-0.1c0,0,0,0,0.1-0.1c0,0,0,0,0.1-0.1c0,0,0,0,0.1-0.1c0,0,0-0.1,0.1-0.1c0,0,0,0,0-0.1   c0,0,0-0.1,0-0.1c0,0,0,0,0-0.1c0,0,0-0.1,0-0.1c0,0,0,0,0-0.1c0,0,0-0.1,0-0.1c0,0,0-0.1,0-0.1c0,0,0-0.1,0-0.1c0,0,0-0.1,0-0.1   c0,0,0,0,0-0.1c0,0,0-0.1,0-0.1v0l0.3-11.7c0-2.2,1.2-4.3,3-5.5l11.9-7.8c1.1-0.7,1.6-2,1.2-3.3c-0.3-1.2-1.4-2.1-2.7-2.2l-4-0.2   c-1.6-0.1-3.1-0.9-3.9-2.2l-6.2-9.3c-0.4-0.7-0.2-1.5,0.4-2c0.7-0.4,1.5-0.2,2,0.4l6.3,9.4c0,0,0,0,0.1,0.1l0,0   c0,0,0.1,0.1,0.1,0.1l0,0c0.1,0.1,0.2,0.2,0.2,0.2l0,0c0,0,0.1,0.1,0.1,0.1c0,0,0.1,0,0.1,0.1l0,0c0,0,0.1,0,0.1,0.1l0,0   c0,0,0.1,0,0.1,0l0,0c0,0,0.1,0,0.2,0l0,0c0.1,0,0.1,0,0.2,0h0l13.1,0.6c1.8,0.1,3.5,0.9,4.7,2.2l7.8,8.5c0.9,0.9,1.9,1.7,3.1,2.2   h0l6.2,2.7c0,0,0,0,0.1,0c0,0,0.1,0,0.1,0c0,0,0.1,0,0.1,0c0,0,0,0,0.1,0c0.1,0,0.1,0,0.2,0l0,0c0.1,0,0.1,0,0.2,0c0,0,0.1,0,0.1,0   l0,0c0,0,0.1,0,0.1,0c0,0,0,0,0.1,0l0.1,0c0,0,0.1,0,0.1,0l0.1,0l0.1,0l0.1,0l0.1,0l0.1,0c0,0,0,0,0.1,0c0,0,0.1,0,0.1-0.1l0,0   c0,0,0.1-0.1,0.1-0.1l9.3-7.2c0.6-0.5,1.5-0.4,2.1,0.2c0.5,0.7,0.3,1.6-0.3,2.1l-9.9,7.6C69.6,38.4,68.2,38.6,67,38"></path>
</g>
</svg>