<svg xmlns="http://www.w3.org/2000/svg" xmlns:xlink="http://www.w3.org/1999/xlink" id="Layer_1" x="0px" y="0px" width="86px" height="86px" viewBox="0 0 86 86" style="enable-background:new 0 0 86 86;" xml:space="preserve">
<style type="text/css">
	.st0{fill:#1EF0BB;}
	.st1{fill:#943DFA;}
</style>
<g>
	<path class="st0" d="M17.8,5.5H3.8C2.8,5.5,2,6.3,2,7.3v71.5c0,1,0.8,1.8,1.8,1.8h13.9c1,0,1.8-0.8,1.8-1.8V7.3   C19.6,6.3,18.8,5.5,17.8,5.5 M5.6,9.1H16v67.9H5.6V9.1z"></path>
	<path class="st1" d="M49.9,25.4c4.4,0,7.9-3.6,7.9-7.9c0-4.4-3.6-7.9-7.9-7.9c-4.4,0-7.9,3.6-7.9,7.9   C41.9,21.8,45.5,25.4,49.9,25.4 M49.9,13.1c2.4,0,4.3,1.9,4.3,4.3c0,2.4-1.9,4.3-4.3,4.3c-2.4,0-4.3-1.9-4.3-4.3v0   C45.6,15.1,47.5,13.1,49.9,13.1"></path>
	<path class="st1" d="M82.2,69.7c-1.1-1.1-2.6-1.7-4.1-1.7h-9.6l-1.8-14.4c0.3-1.5,0.3-3-0.1-4.4L63,33.5c-0.9-3.7-4.2-6.3-8-6.3   h-8.9c-1.9,0-3.8,0.8-5.1,2.2l-6,6.2L25.7,38l0,0c-1.7,0.4-3.1,1.7-3.5,3.4c-0.5,1.7,0,3.6,1.3,4.9c1.2,1.3,3,1.8,4.7,1.3l0,0   l10.2-2.6c1.3-0.3,2.5-1,3.4-2l5.6-5.8L50,49l-9.5,2.3C37.3,52,35,54.9,35,58.2V74c0.1,3.2,2.8,5.8,6,5.7c3.1-0.1,5.6-2.6,5.7-5.7   V62.2h9.2l1.4,11.3c0.4,3.6,3.5,6.2,7,6.2h13.7c3.2,0,5.9-2.6,5.9-5.9C84,72.3,83.3,70.8,82.2,69.7 M40.9,76.1   c-1.2,0-2.2-0.9-2.3-2.1V58.2c0-1.6,1.1-3,2.7-3.4h0l9.9-2.4c0.8-0.1,1.4-0.5,1.9-1.1c0.5-0.7,0.7-1.6,0.5-2.4v0l-2.9-12.6v0   c-0.3-1.3-1.2-2.3-2.5-2.7c-1.3-0.3-2.6,0.1-3.5,1l0,0l-5.6,5.8c-0.4,0.5-1,0.8-1.7,1l-10.2,2.6l0,0h0c-0.5,0.1-0.9,0-1.2-0.4   c-0.4-0.4-0.5-0.9-0.4-1.4c0.1-0.5,0.4-0.8,0.9-0.9h0h0l9.9-2.5l0,0c0,0,0.1,0,0.1,0l0.1,0c0,0,0.1,0,0.1,0c0,0,0.1,0,0.1,0   c0,0,0.1,0,0.1,0c0,0,0.1,0,0.1-0.1l0.1,0c0,0,0.1,0,0.1-0.1c0,0,0,0,0.1,0c0,0,0.1-0.1,0.1-0.1c0,0,0,0,0,0l6.3-6.6   c0.7-0.7,1.6-1.1,2.5-1.1H55c2.1,0,4,1.5,4.5,3.5L63.1,50c0.2,1,0.2,2.1,0,3.1v0c-0.2,1-0.7,2-1.4,2.8c-1.3,1.7-3.4,2.7-5.5,2.7   H44.9c-1,0-1.8,0.8-1.8,1.8V74C43.1,75.2,42.1,76.1,40.9,76.1 M78.1,76.1H64.4c-1.8,0-3.3-1.3-3.5-3l-1.4-11.4   c1.6-0.5,3-1.4,4.2-2.6L65.1,70c0,0,0,0,0,0.1c0,0,0,0.1,0,0.1s0,0.1,0,0.1c0,0,0,0.1,0,0.1c0,0,0,0.1,0,0.1c0,0,0,0,0,0.1   c0,0.1,0,0.1,0.1,0.2l0,0c0,0,0,0.1,0.1,0.1l0,0c0,0,0,0.1,0.1,0.1c0,0,0,0,0,0c0,0,0,0.1,0.1,0.1c0,0,0,0,0,0c0,0,0,0,0.1,0.1   c0,0,0,0,0.1,0c0,0,0,0,0.1,0.1c0,0,0,0,0.1,0c0,0,0,0,0.1,0c0,0,0,0,0.1,0c0,0,0.1,0,0.1,0l0.1,0c0,0,0.1,0,0.1,0c0,0,0,0,0.1,0   c0,0,0.1,0,0.1,0c0,0,0,0,0.1,0c0,0,0.1,0,0.1,0l0,0c0.1,0,0.1,0,0.2,0h11.2c1.2,0,2.2,1,2.3,2.2v0C80.4,75.1,79.3,76.1,78.1,76.1"></path>
	<path class="st0" d="M24.1,33.9c0.3,0,0.6-0.1,0.8-0.2l4.2-3c1.3-0.9,1.6-2.7,0.7-4.1c-0.2-0.2-0.4-0.4-0.6-0.6h0l-0.9-0.7   c0,0-0.1-0.1-0.1-0.2c0-0.1,0-0.1,0.1-0.1l4.2-3c0.6-0.4,0.7-1.3,0.3-1.9c-0.4-0.6-1.3-0.7-1.9-0.3l-4.2,3h0   c-1.3,0.9-1.6,2.7-0.7,4c0.2,0.2,0.3,0.4,0.5,0.6l0.9,0.7c0.1,0,0.1,0.1,0.1,0.2c0,0.1,0,0.1-0.1,0.2l-4.2,3   c-0.6,0.4-0.8,1.3-0.3,1.9C23.2,33.7,23.6,33.9,24.1,33.9"></path>
	<path class="st0" d="M30.1,64.2l-3.8-3.4c0-0.1,0-0.1,0-0.2c0-0.1,0-0.1,0.1-0.1l1-0.6l0,0l0,0c0.8-0.5,1.3-1.4,1.4-2.3   c0.1-0.9-0.3-1.8-1-2.4l-3.8-3.4c-0.6-0.5-1.4-0.5-1.9,0.1c-0.5,0.6-0.5,1.4,0.1,1.9l3.8,3.4c0.1,0.1,0.1,0.1,0.1,0.1   c0,0.1-0.1,0.2-0.1,0.2l-1,0.6l0,0l0,0c-0.8,0.5-1.3,1.3-1.3,2.2c-0.1,0.9,0.2,1.8,0.9,2.5l3.8,3.4c0.6,0.5,1.4,0.5,1.9-0.1   C30.7,65.5,30.6,64.7,30.1,64.2"></path>
	<path class="st1" d="M14.1,41.6c-0.1-0.2-0.3-0.3-0.5-0.3h-2c-0.1,0-0.3-0.1-0.3-0.3c0,0,0,0,0,0l1-2.9c0.1-0.2,0-0.3-0.1-0.5   c-0.1-0.1-0.2-0.2-0.4-0.2H9.8c-0.2,0-0.4,0.1-0.5,0.4l-2,6c-0.1,0.2,0,0.3,0.1,0.5c0.1,0.1,0.3,0.2,0.4,0.2h1.5   c0.1,0,0.2,0,0.2,0.1c0,0,0,0.1,0,0.1l-0.7,4.1c0,0.2,0.1,0.3,0.3,0.4c0,0,0,0,0.1,0c0.1,0,0.2-0.1,0.3-0.2l4.7-7   C14.1,41.9,14.1,41.7,14.1,41.6"></path>
</g>
</svg>