<svg xmlns="http://www.w3.org/2000/svg" xmlns:xlink="http://www.w3.org/1999/xlink" id="Layer_1" x="0px" y="0px" width="86px" height="86px" viewBox="0 0 86 86" style="enable-background:new 0 0 86 86;" xml:space="preserve">
<style type="text/css">
	.st0{fill:#943DFA;}
	.st1{fill:#1EF0BB;}
</style>
<g>
	<path class="st0" d="M53.5,74L34.6,40.7c-0.4-0.7-1.3-1-2-0.6c-0.7,0.4-1,1.3-0.6,2l1.4,2.5h-9.5l1.4-2.6c0.4-0.7,0.1-1.6-0.6-2   c-0.7-0.4-1.6-0.1-2,0.6L4.4,74c-0.4,0.7-0.1,1.6,0.6,2c0.2,0.1,0.5,0.2,0.7,0.2c0.5,0,1-0.3,1.3-0.8l3.7-6.7h36.4l3.8,6.7   c0.3,0.5,0.8,0.8,1.3,0.8c0.3,0,0.5-0.1,0.7-0.2C53.6,75.6,53.9,74.7,53.5,74z M34.9,47.7c0.1,0,0.1,0,0.2,0l3.8,6.7H18.6l3.7-6.7   H34.9z M12.3,65.8l4.7-8.6v0.3h23.6l4.7,8.3H12.3z"></path>
	<g>
		<path class="st1" d="M81.3,66.2l-8.1-7c-0.6-0.5-1.6-0.5-2.1,0.2c-0.5,0.6-0.5,1.6,0.2,2.1l7.6,6.5v7.5H59.1v-8.2    c0-0.3-0.1-0.6-0.2-0.8L42.3,40.6c-0.4-0.7-1.4-0.9-2.1-0.5c-0.7,0.4-0.9,1.4-0.5,2.1l16.3,25.6V77c0,0.8,0.7,1.5,1.5,1.5h22.7    c0.8,0,1.5-0.7,1.5-1.5v-9.7C81.8,66.9,81.6,66.5,81.3,66.2z"></path>
		<path class="st1" d="M61.5,53.1c0.3,0.2,0.6,0.4,1,0.4c0.4,0,0.8-0.2,1.1-0.5c0.5-0.6,0.5-1.6-0.2-2.1L51.2,40.2    c-0.6-0.5-1.6-0.5-2.1,0.2c-0.5,0.6-0.5,1.6,0.2,2.1L61.5,53.1z"></path>
		<path class="st1" d="M65.8,33.1v29.5c0,0.8,0.7,1.5,1.5,1.5l0,0c0.8,0,1.5-0.7,1.5-1.5V33.1c6.7-0.8,11.8-6.7,11.3-13.7    c-0.5-6.4-5.8-11.6-12.3-11.9C60.5,7.2,54.5,13,54.5,20.3C54.5,26.9,59.4,32.3,65.8,33.1z M67.3,10.5c5.4,0,9.8,4.4,9.8,9.8    s-4.4,9.8-9.8,9.8c-5.4,0-9.8-4.4-9.8-9.8S61.9,10.5,67.3,10.5z"></path>
	</g>
	<path class="st0" d="M67.3,12.3c-0.7,0-1.3,0.6-1.3,1.3v8.3c0,0.7,0.6,1.3,1.3,1.3c0.7,0,1.3-0.6,1.3-1.3v-8.3   C68.6,12.9,68,12.3,67.3,12.3"></path>
	<path class="st0" d="M67.3,24.8c1,0,1.8,0.8,1.8,1.8c0,1-0.8,1.8-1.8,1.8c-1,0-1.8-0.8-1.8-1.8C65.6,25.6,66.3,24.8,67.3,24.8"></path>
</g>
</svg>	