<svg xmlns="http://www.w3.org/2000/svg" xmlns:xlink="http://www.w3.org/1999/xlink" id="Layer_1" x="0px" y="0px" width="86px" height="86px" viewBox="0 0 86 86" style="enable-background:new 0 0 86 86;" xml:space="preserve">
<style type="text/css">
	.st0{fill:#1EF0BB;}
	.st1{fill:#943DFA;}
</style>
<g>
	<g>
		<path class="st0" d="M74.5,62h-1.8c-0.9,0-1.7,0.7-1.7,1.7l0,0c0,0.9,0.7,1.7,1.7,1.7h1.8c2,0,3.8,1.3,4.3,3.3    c0.6,2.7-1.5,5.1-4.1,5.1H57.1c-2.3,0-4.2,1.9-4.2,4.2c0,0.5-0.4,0.9-0.9,0.9H19.8c-0.5,0-0.9-0.4-0.9-0.9c0-3.7-3-6.8-6.8-6.8    H9.6c-1,0-2-0.6-2.2-1.6c-0.4-1.5,0.7-2.8,2.1-2.8h2.6c0.9,0,1.6-0.7,1.6-1.7l0,0c0-0.9-0.7-1.6-1.6-1.6H9.5c-3,0-5.5,2.5-5.4,5.6    c0,3,2.4,5.4,5.4,5.4h2.6c2,0,3.5,1.6,3.5,3.5c0,2.3,1.9,4.2,4.2,4.2H52c2.3,0,4.2-1.9,4.2-4.2c0-0.5,0.4-0.9,0.9-0.9h17.4    c4.1,0,7.4-3.3,7.4-7.4C82,65.3,78.6,62,74.5,62z"></path>
		<path class="st0" d="M26.1,73.9h4.5c0.8,0,1.4,0.6,1.4,1.4v0c0,0.8-0.6,1.4-1.4,1.4h-4.5c-0.8,0-1.4-0.6-1.4-1.4v0    C24.7,74.5,25.3,73.9,26.1,73.9z"></path>
		<path class="st0" d="M35.2,73.9H36c0.8,0,1.5,0.6,1.5,1.4v0c0,0.8-0.6,1.4-1.5,1.4h-0.8c-0.8,0-1.5-0.6-1.5-1.4v0    C33.7,74.5,34.3,73.9,35.2,73.9z"></path>
	</g>
	<g>
		<path class="st1" d="M48.7,58.8L48.7,58.8c1.1,0,2.2-0.4,3-1.2s1.2-1.9,1.2-3c0-0.2,0-0.4,0-0.5l-4.5-34.8l0,0    c-0.3-2.1-2.1-3.7-4.2-3.7H33.3c-2.1,0-3.9,1.6-4.2,3.7l-4.5,34.8c-0.1,1.1,0.2,2.2,0.8,3.1c0.7,0.9,1.7,1.5,2.8,1.6    c0.2,0,0.4,0,0.5,0C28.7,58.8,48.7,58.8,48.7,58.8z M48.7,55.5H28.8l0,0c-0.5,0-0.9-0.4-0.9-0.9v-0.1l4.5-34.8    c0.1-0.5,0.5-0.8,0.9-0.8h10.9c0.5,0,0.9,0.4,0.9,0.8l4.5,34.8c0,0.3,0,0.5-0.2,0.7l0,0C49.3,55.4,49,55.5,48.7,55.5L48.7,55.5z"></path>
		<path class="st1" d="M68.7,68.2L61.2,7.7C60.9,5.6,59.1,4,57,4H27.3c-2.1,0-3.9,1.6-4.2,3.7l-7.6,60.5c-0.1,1.1,0.2,2.2,0.9,3.1    c0.7,0.9,1.7,1.4,2.8,1.6c0.2,0,0.3,0,0.5,0h6.7l0,0c1.9,0,3.6-1.3,4.1-3.2l0.3-1.2c0.1-0.4,0.5-0.7,0.9-0.7h14    c0.4,0,0.8,0.3,0.9,0.7l0.3,1.2c0.5,1.9,2.1,3.2,4.1,3.2l0,0h6.7l0,0h6.7l0,0c1.1,0,2.2-0.4,3-1.2c0.8-0.8,1.2-1.9,1.2-3    C68.7,68.6,68.7,68.4,68.7,68.2z M61.9,68.2L54.4,7.7c0-0.1,0-0.3-0.1-0.4H57c0.5,0,0.9,0.4,0.9,0.8h0.3h-0.3l7.6,60.5    c0,0.2,0,0.5-0.2,0.7s-0.4,0.3-0.6,0.4h-0.1h-2.7C62,69.2,62,68.7,61.9,68.2z M27.7,67.7L27.4,69c-0.1,0.4-0.5,0.7-0.9,0.7h-6.7    c-0.5,0-0.9-0.4-0.9-0.9v-0.1l7.6-60.5c0.1-0.5,0.5-0.8,0.9-0.8h3.4v2.2c0,2.3,1.9,4.2,4.2,4.2h7.7c2.3,0,4.2-1.9,4.2-4.2V7.3h3.4    c0.5,0,0.9,0.4,0.9,0.8l7.6,60.5c0.1,0.5-0.3,1-0.8,1h-0.1h-6.7c-0.4,0-0.8-0.3-0.9-0.7L50,67.7c-0.5-1.9-2.1-3.2-4.1-3.2l0,0h-14    l0,0C29.8,64.5,28.2,65.9,27.7,67.7z M43.6,9.5c0,0.5-0.4,0.9-0.9,0.9H35c-0.5,0-0.9-0.4-0.9-0.9V7.3h9.6L43.6,9.5L43.6,9.5z"></path>
		<path class="st1" d="M38.8,29.3L38.8,29.3c-0.9,0-1.6,0.7-1.6,1.6v6c0,0.4,0.2,0.8,0.5,1.1s0.7,0.5,1.1,0.5l0,0    c0.4,0,0.8-0.2,1.1-0.5s0.5-0.7,0.5-1.1v-6C40.4,30.1,39.7,29.3,38.8,29.3z"></path>
		<path class="st1" d="M40.3,41.6c-0.3-0.8-1.3-1.2-2.1-0.9c-0.4,0.2-0.7,0.5-0.9,0.9s-0.2,0.8,0,1.2c0.2,0.6,0.8,1,1.5,1l0,0    c0.4,0,0.8-0.2,1.1-0.5s0.5-0.7,0.5-1.1C40.4,42,40.3,41.8,40.3,41.6L40.3,41.6z"></path>
	</g>
</g>
</svg>