<svg xmlns="http://www.w3.org/2000/svg" xmlns:xlink="http://www.w3.org/1999/xlink" id="Layer_1" x="0px" y="0px" width="86px" height="86px" viewBox="0 0 86 86" style="enable-background:new 0 0 86 86;" xml:space="preserve">
<style type="text/css">
	.st0{fill:#943DFA;}
	.st1{fill:#1EF0BB;}
</style>
<g>
	<path class="st0" d="M69.7,64.7h-4.2V29.9C65.6,17.5,55.4,7.3,43,7.3c-12.4,0-22.6,10.1-22.6,22.6v18.8c0,0.8,0.6,1.4,1.4,1.4   c0.8,0,1.4-0.6,1.4-1.4V29.9c0-10.9,8.9-19.8,19.8-19.8c10.9,0,19.8,8.9,19.8,19.8v34.8H23.2v-4.3c0-0.8-0.6-1.4-1.4-1.4   c-0.8,0-1.4,0.6-1.4,1.4v4.3h-4.2c-0.8,0-1.4,0.6-1.4,1.4v11.1c0,0.8,0.6,1.4,1.4,1.4h53.5c0.8,0,1.4-0.6,1.4-1.4V66.1   C71.1,65.4,70.5,64.7,69.7,64.7 M68.3,75.9H17.7v-8.4h50.7V75.9z"></path>
	<path class="st0" d="M21.8,56c0.4,0,0.7-0.1,1-0.4s0.4-0.6,0.4-1s-0.1-0.7-0.4-1c-0.3-0.3-0.6-0.4-1-0.4c-0.4,0-0.7,0.1-1,0.4   c-0.3,0.3-0.4,0.6-0.4,1s0.1,0.7,0.4,1S21.5,56,21.8,56"></path>
	<path class="st0" d="M43,14.9c-0.8,0-1.4,0.6-1.4,1.4v3.1h-3.2c-0.8,0-1.4,0.6-1.4,1.4c0,0.8,0.6,1.4,1.4,1.4h3.2v8.8   c0,0.8,0.6,1.4,1.4,1.4c0.8,0,1.4-0.6,1.4-1.4v-8.8h3.2c0.8,0,1.4-0.6,1.4-1.4c0-0.8-0.6-1.4-1.4-1.4h-3.2v-3.1   C44.4,15.5,43.8,14.9,43,14.9"></path>
	<path class="st1" d="M29.9,39c0,0.8,0.6,1.4,1.4,1.4h23.4c0.8,0,1.4-0.6,1.4-1.4c0-0.8-0.6-1.4-1.4-1.4H31.3   C30.5,37.6,29.9,38.2,29.9,39"></path>
	<path class="st1" d="M31.3,48.2h17.5c0.8,0,1.4-0.6,1.4-1.4s-0.6-1.4-1.4-1.4H31.3c-0.8,0-1.4,0.6-1.4,1.4S30.5,48.2,31.3,48.2"></path>
	<path class="st1" d="M54.7,45.4c-0.4,0-0.7,0.1-1,0.4s-0.4,0.6-0.4,1c0,0.4,0.1,0.7,0.4,1s0.6,0.4,1,0.4c0.4,0,0.7-0.1,1-0.4   s0.4-0.6,0.4-1c0-0.4-0.1-0.7-0.4-1S55.1,45.4,54.7,45.4"></path>
	<path class="st1" d="M47.6,53.2h-9.2c-0.8,0-1.4,0.6-1.4,1.4s0.6,1.4,1.4,1.4h9.2c0.8,0,1.4-0.6,1.4-1.4S48.4,53.2,47.6,53.2"></path>
</g>
</svg>