<svg xmlns="http://www.w3.org/2000/svg" xmlns:xlink="http://www.w3.org/1999/xlink" id="Layer_1" x="0px" y="0px" width="86px" height="86px" viewBox="0 0 86 86" style="enable-background:new 0 0 86 86;" xml:space="preserve">
<style type="text/css">
	.st0{fill:#943DFA;}
	.st1{fill:#00F9A7;}
</style>
<path class="st0" d="M45.6,65.6c-0.2,0-0.3,0-0.3,0.1c-2.8,2.4-2.8,2.2-5.4-0.4C33.6,59,27.4,52.8,21.2,46.6  c-1.9-1.9-1.9-2.2-0.1-4.2c0.2-0.2,0.3-0.4,0.6-0.8c-3.7-0.5-7.2-1-10.8-1.6c-1.2-0.2-2.6,0.1-3.2-1.4c-0.5-1.5,0.8-2.2,1.7-3  c6.4-5.9,14.4-9.6,23-10.7c0.5-0.1,0.9-0.2,1.4-0.2c2.4,0.4,3.8-1,5.4-2.6c8.2-8.2,18.6-14,30-16.5c3.7-0.9,7.6-1,11.4-1.4  c1.8-0.2,2.3,0.5,2.3,2.3c0,11-3.6,21-9.3,30.3c-2.9,4.7-6.4,9-10.5,12.8c-0.4,0.4-0.6,0.9-0.6,1.5C62,61.4,57.9,71.1,50.8,78.5  c-0.5,0.5-1.5,1.1-2.2,0.9c-0.6-0.2-1.2-1.2-1.3-1.9C46.7,73.6,46.1,69.6,45.6,65.6 M23.7,44.4c6.2,6.3,12.3,12.4,18.5,18.5  c0.4,0.2,0.9,0.2,1.2-0.1c0.9-0.7,1.8-1.5,2.7-2.3c5.2-4.7,10.6-9.2,15.7-14.1c9.2-8.9,15.3-20.5,17.3-33.2c0.3-1.7,0.3-3.5,0.5-5.6  C76.8,7.8,74.4,8,72,8.4c-9.4,1.7-18.2,5.8-25.5,11.9c-3.5,3.1-6.9,6.3-10,9.8C32.2,34.8,28,39.6,23.7,44.4L23.7,44.4z M13.1,37  c3.5,0.5,6.9,0.9,10.1,1.5c0.7,0.2,1.4-0.1,1.8-0.6c2.3-2.7,4.7-5.3,7.1-7.9c0.4-0.5,0.8-0.9,1.4-1.5C27.4,28.5,17.3,32.7,13.1,37  L13.1,37z M50.1,73.9c4.3-4.1,9.2-15.8,8.5-20.3c-3.2,2.9-6.4,5.7-9.6,8.6c-0.3,0.2-0.4,0.6-0.4,0.9C49.1,66.7,49.6,70.2,50.1,73.9  L50.1,73.9z"></path>
<path class="st0" d="M29.9,67.5c-0.2,3.7-1.5,6.9-4.9,8.5c-4.9,2.3-10,4.2-15.1,6.3c-1.4,0.5-2.8,1-4.2,1.3  c-1.6,0.4-2.7-0.7-2.2-2.2c2-6.4,4-12.9,7.3-18.8c2-3.8,6.2-5.9,10.4-5.2c4.2,0.6,7.5,3.8,8.4,8C29.8,66,29.9,66.8,29.9,67.5   M7.4,79.1L8,79.7c5-2.1,10-4,14.9-6.3c2.9-1.3,4-4.2,3.5-7.4c-0.5-2.7-2.8-4.9-5.8-5.5c-2.8-0.5-5.6,0.9-6.8,3.5  C11.5,69,9.5,74.1,7.4,79.1z"></path>
<path class="st1" d="M11.8,7.6c1,0,1.9,0,2.9,0c1.2-0.1,2,0.4,2,1.6c0,1.2-0.9,1.6-2.1,1.6c-1.7,0-3.3,0-5,0c-1.7,0-2.8,1-2.8,2.5  c0,1.5,1,2.4,2.8,2.5c0.9,0,1.8,0,2.7,0.2c3.1,0.7,5,3.8,4.3,6.9c-0.5,1.9-1.9,3.5-3.8,4.1c-0.7,0.2-1.1,0.5-1.1,1.3  c0,1.6-0.5,2.3-1.7,2.3c-1.4-0.1-1.6-1.1-1.6-2.2c0-0.3-0.1-0.6-0.1-1c-1,0-1.9,0-2.8,0c-1.1,0-2-0.5-2-1.8c0-1.2,0.9-1.6,2-1.6  c1.7,0,3.4,0,5.1,0c1.6,0,2.7-1.1,2.7-2.5c0-1.4-1-2.3-2.7-2.5c-1.3,0-2.6-0.2-3.9-0.6c-2.3-1-3.4-2.9-3.4-5.4C3.5,10.8,5,8.7,7.2,8  C8,7.7,8.5,7.4,8.4,6.5c-0.1-1.2,0.4-2.2,1.7-2.1c1.3,0,1.7,1,1.6,2.2C11.7,6.9,11.7,7.3,11.8,7.6"></path>
<path class="st1" d="M78,60.5c0.9,0,1.8,0,2.7,0c1.4,0.1,2.2,0.8,2.1,1.8c-0.1,1.2-1,1.6-2.1,1.6c-1.7,0-3.4,0-5.1,0  c-1.4-0.1-2.6,1-2.7,2.4c0,0,0,0.1,0,0.1c0,1.4,1,2.3,2.6,2.4c0.7,0,1.4,0,2.1,0.1c2.7,0.3,4.8,2.3,5.2,5c0.3,2.7-1.3,5.3-3.9,6.2  c-0.7,0.1-1.1,0.7-1,1.4c0,1.5-0.7,2.4-1.7,2.2c-1.3-0.2-1.6-1.1-1.6-2.3c0-0.3,0-0.6-0.1-1.1c-1,0-2.1,0-3.1,0  c-1.1,0-1.8-0.5-1.8-1.5c0-1.1,0.7-1.7,1.8-1.7c1.6,0,3.2,0,4.8-0.1c2.1,0,3.2-0.9,3.2-2.5c0-1.6-1.1-2.5-3.3-2.4  c-2.3,0.1-4.3-0.6-5.6-2.6c-1.8-2.6-1.1-6.2,1.6-8c0.4-0.3,0.9-0.5,1.4-0.7c0.8-0.3,1.1-0.5,1-1.3c-0.1-1.1,0.2-2.1,1.6-2.2  c1.1-0.1,1.6,0.6,1.7,2.3C77.9,59.8,78,60.1,78,60.5"></path>
<path class="st1" d="M51.9,26.9c0.1-4.6,3.8-8.2,8.4-8.2c4.6,0.1,8.2,3.8,8.2,8.4s-3.8,8.2-8.4,8.2c0,0,0,0,0,0  c-4.5,0-8.2-3.7-8.1-8.2C51.9,27,51.9,26.9,51.9,26.9 M60.2,22.1c-2.6-0.1-4.9,2-4.9,4.6c0,0.1,0,0.2,0,0.2c0,2.7,2.2,4.9,4.9,4.9  c2.7,0,4.9-2.2,4.9-4.9c0.1-2.6-1.9-4.8-4.5-5C60.4,22.1,60.3,22.1,60.2,22.1L60.2,22.1z"></path>
</svg>