<svg xmlns="http://www.w3.org/2000/svg" xmlns:xlink="http://www.w3.org/1999/xlink" id="Layer_1" x="0px" y="0px" width="133.9px" height="86px" viewBox="0 0 133.9 86" style="enable-background:new 0 0 133.9 86;" xml:space="preserve">
<style type="text/css">
	.st0{fill:#943FF8;}
	.st1{fill:#1EF0BB;}
</style>
<g>
	<path class="st0" d="M131.8,23.5c-0.4-0.5-0.9-0.7-1.5-0.7H77.2c-0.9,0-1.6,0.6-1.8,1.4l-7.7,28.6c-0.3,1,0.3,2.1,1.4,2.3   c0.2,0,0.3,0.1,0.5,0.1h33.9l-1.2,4.3H53.1l6.6-24.8H67c1.1,0,1.9-0.9,1.9-1.9c0-1.1-0.9-1.9-1.9-1.9h0h-8.7   c-0.9,0-1.6,0.6-1.8,1.4l-7.7,28.6c-0.3,1,0.3,2.1,1.4,2.3c0.2,0,0.3,0.1,0.5,0.1h53.1c0.9,0,1.6-0.6,1.8-1.4l1.8-6.8h15.2   c0.9,0,1.6-0.6,1.8-1.4l7.7-28.6C132.3,24.5,132.1,23.9,131.8,23.5L131.8,23.5z M78.6,26.5h22.6l-0.7,2.4c-3.1,0.5-5.7,2.4-6.4,4.9   c-1.2,4.6,3,6.1,5.1,6.9c3,1.1,2.9,1.6,2.7,2.3c-0.3,1-2.2,2.2-4.2,2.2c-0.8,0.1-1.6-0.2-2.2-0.7c-0.1-0.1-0.1-0.3-0.1-0.4   c0.3-1-0.3-2.1-1.3-2.4c-1-0.3-2.1,0.3-2.4,1.3c0,0,0,0.1,0,0.1c-0.4,1.3-0.1,2.7,0.7,3.8c0.7,0.9,1.7,1.6,2.8,1.9l-0.7,2.7H72   L78.6,26.5z M121.1,51.3H98.6l0.6-2.4c3.1-0.5,5.8-2.4,6.5-4.9c1.2-4.6-3-6.1-5.1-6.9c-3-1.1-2.9-1.6-2.7-2.3   c0.3-1,2.2-2.2,4.2-2.2c0.8-0.1,1.6,0.2,2.2,0.7c0.1,0.1,0.1,0.3,0.1,0.4c-0.2,1,0.4,2.1,1.4,2.3c1,0.2,2-0.3,2.3-1.3   c0.4-1.3,0.1-2.7-0.7-3.8c-0.7-0.9-1.8-1.6-2.9-1.9l0.7-2.6h22.6L121.1,51.3z"></path>
	<path class="st1" d="M83.1,33c-1-0.3-2.1,0.3-2.3,1.4l-2.2,8.2c-0.3,1,0.3,2.1,1.3,2.3c0.2,0,0.3,0.1,0.5,0.1   c0.9,0,1.6-0.6,1.8-1.4l2.2-8.2C84.7,34.3,84.1,33.3,83.1,33C83.1,33,83.1,33,83.1,33L83.1,33z"></path>
	<path class="st1" d="M116.7,44.8c0.2,0,0.3,0.1,0.5,0.1c0.9,0,1.6-0.6,1.8-1.4l2.2-8.2c0.3-1-0.3-2.1-1.3-2.4   c-1-0.3-2.1,0.3-2.4,1.3c0,0,0,0.1,0,0.1l-2.2,8.2C115.1,43.5,115.7,44.6,116.7,44.8L116.7,44.8z"></path>
	<path class="st1" d="M61.9,42.5l-2.2,8.2c-0.3,1,0.3,2.1,1.3,2.4c1,0.3,2.1-0.3,2.4-1.3c0,0,0-0.1,0-0.1l2.2-8.2   c0.3-1-0.3-2.1-1.3-2.4C63.3,40.8,62.2,41.4,61.9,42.5C61.9,42.4,61.9,42.5,61.9,42.5"></path>
	<path class="st1" d="M34.3,26.5H69c1.1,0,1.9-0.9,1.9-1.9c0-1.1-0.9-1.9-1.9-1.9H34.3c-1.1,0-1.9,0.9-1.9,1.9   C32.4,25.7,33.3,26.5,34.3,26.5"></path>
	<path class="st1" d="M34.2,32.8c0-1.1-0.9-1.9-1.9-1.9H3.7c-1.1,0-1.9,0.9-1.9,1.9c0,1.1,0.9,1.9,1.9,1.9h0h28.6   C33.3,34.7,34.2,33.8,34.2,32.8"></path>
	<path class="st1" d="M50.5,32.8c0-1.1-0.9-1.9-1.9-1.9h-8.2c-1.1,0-1.9,0.9-1.9,1.9c0,1.1,0.9,1.9,1.9,1.9h0h8.2   C49.7,34.7,50.5,33.8,50.5,32.8"></path>
	<path class="st1" d="M46.6,39H18c-1.1,0-1.9,0.9-1.9,1.9c0,1.1,0.9,1.9,1.9,1.9h28.6c1.1,0,1.9-0.9,1.9-1.9   C48.5,39.9,47.6,39,46.6,39"></path>
	<path class="st1" d="M46.6,47.2H30.2c-1.1,0-1.9,0.9-1.9,1.9c0,1.1,0.9,1.9,1.9,1.9h16.3c1.1,0,1.9-0.9,1.9-1.9   C48.5,48.1,47.6,47.2,46.6,47.2"></path>
</g>
</svg>