<svg xmlns="http://www.w3.org/2000/svg" xmlns:xlink="http://www.w3.org/1999/xlink" id="Layer_1" x="0px" y="0px" width="86px" height="86px" viewBox="0 0 86 86" style="enable-background:new 0 0 86 86;" xml:space="preserve">
<style type="text/css">
	.st0{fill:#10F9AC;}
	.st1{fill:#943DFA;}
</style>
<g>
	<path class="st0" d="M3.2,27.3c0-3.7,0-7.5,0-11.2C3.1,14.6,4,13.3,5.3,13c8.4-3.2,16.7-6.4,25-9.6c0.7-0.2,1.5-0.2,2.2,0   c8.3,3.2,16.6,6.4,24.9,9.6c1.9,0.7,2.2,1.2,2.2,3.2c0,4.6,0,9.2,0,13.8c0,1.9-1,3-2.5,3c-1.4,0-2.5-1.2-2.5-3c0-3.8,0-7.6,0-11.4   c0.1-0.8-0.4-1.6-1.2-1.8c-7.1-2.7-14.2-5.5-21.3-8.2c-0.5-0.2-1.1-0.2-1.6,0c-7.1,2.7-14.1,5.4-21.2,8.1c-0.8,0.2-1.3,0.9-1.2,1.7   C8.3,25.5,8,32.7,8.4,39.8c0.7,10.7,5.5,19.2,15,24.6c2.3,1.2,4.6,2.2,7,3.1c0.4,0.1,0.9,0.2,1.4,0.2c1.3,0,2.5,1,2.6,2.3   c0.1,1.3-0.8,2.4-2,2.6c-0.6,0.1-1.3,0.1-1.9,0c-14.3-3.9-25.4-15-26.9-31.3C3.1,36.7,3.2,32,3.1,27.3L3.2,27.3z"></path>
	<path class="st1" d="M39.7,61.7c-0.3-11.9,9-21.8,20.9-22.1c0.1,0,0.1,0,0.2,0c11.3-0.3,21.2,8.2,22,20.4   c0.7,11.5-8.4,22-19.7,22.7C50.5,83.6,40.5,74.6,39.7,61.7 M61.3,77.8c9.1,0,16.6-7.3,16.6-16.5c0.1-9.1-7.2-16.6-16.4-16.7   c0,0,0,0,0,0c-9.2,0-16.7,7.2-16.7,16.2C44.7,70.3,51.9,77.7,61.3,77.8"></path>
	<path class="st0" d="M59.6,64.2c3.3-3.8,6.4-7.4,9.6-10.8c0.7-0.7,1.6-1.1,2.5-1.2c2.1,0.1,2.9,2.4,1.4,4.1c-2.5,2.9-5,5.8-7.6,8.7   c-1.2,1.4-2.4,2.8-3.7,4.2c-1.3,1.5-2.7,1.6-4.2,0.1c-2.1-2-4.1-4.1-6.1-6.1c-1.2-1.2-1.3-2.7-0.3-3.7c1-1,2.6-1,3.7,0   c0,0,0.1,0.1,0.1,0.1C56.5,61,58,62.5,59.6,64.2"></path>
</g>
</svg>