<svg xmlns="http://www.w3.org/2000/svg" xmlns:xlink="http://www.w3.org/1999/xlink" id="Layer_1" x="0px" y="0px" width="86px" height="86px" viewBox="0 0 86 86" style="enable-background:new 0 0 86 86;" xml:space="preserve">
<style type="text/css">
	.st0{fill:#943DFA;}
	.st1{fill:#10F9AC;}
	.st2{fill:none;}
</style>
<g>
	<path class="st0" d="M70.4,66.1c-1.7-0.2-3.3-0.2-4.8-0.8c-2.7-0.8-4.5-3.3-4.6-6c-0.2-4-0.2-8.1,0-12.1c0.3-3.6,3.2-6.4,6.8-6.6   c1.9-0.1,3.7-0.1,5.6-0.1c1.8,0,2.7,1,2.7,2.9c0,6.8,0.1,13.6,0,20.5C76,70.5,70.5,76,63.7,76.1c-4,0.1-8.1,0-12.1,0   c-0.8-0.1-1.6,0.4-1.9,1.1C48,80.4,44.4,81.9,41,81c-3.4-0.9-5.7-4-5.7-7.5c0-3.5,2.4-6.5,5.8-7.3c3.4-0.9,7,0.7,8.6,3.9   c0.3,0.7,0.9,1.1,1.7,1c3.9,0,7.8,0,11.7,0C66.7,71,69.6,68.9,70.4,66.1 M71.1,45.5c-0.9,0-1.6,0-2.3,0c-1.9,0.1-2.8,1-2.8,3   c0,3.1,0,6.3,0,9.4c0,1.4,1.1,2.6,2.5,2.6h0c1.4,0,2.5-1.1,2.5-2.5C71.1,53.9,71.1,49.9,71.1,45.5L71.1,45.5z M43,71.1   c-1.3,0-2.5,1-2.5,2.3c0,0,0,0.1,0,0.1c0,1.3,1,2.5,2.4,2.5c0,0,0.1,0,0.1,0c1.4,0,2.5-1,2.5-2.4c0,0,0-0.1,0-0.1   c0-1.3-1-2.5-2.3-2.5C43.1,71.1,43.1,71.1,43,71.1"></path>
	<path class="st1" d="M75.7,32.9c0,1.3-0.9,2.4-2.2,2.7c-1.3,0.2-2.6-0.7-2.8-2c-0.4-1.4-0.6-2.8-1-4.1C66,17.7,55,9.7,42.7,9.9   C30.5,10,19.7,18,16.2,29.7c-0.3,1.1-0.5,2.2-0.8,3.3c-0.4,1.7-1.7,2.6-3.2,2.2c-1.4-0.3-2.1-1.6-1.8-3.3C13,17.6,24.7,6.6,39.1,5   c17.6-2.1,33.6,10,36.5,27.5C75.7,32.6,75.7,32.8,75.7,32.9"></path>
	<path class="st2" d="M75.7,32.9c0,1.3-0.9,2.4-2.2,2.7c-1.3,0.2-2.6-0.7-2.8-2c-0.4-1.4-0.6-2.8-1-4.1C66,17.7,55,9.7,42.7,9.9   C30.5,10,19.7,18,16.2,29.7c-0.3,1.1-0.5,2.2-0.8,3.3c-0.4,1.7-1.7,2.6-3.2,2.2c-1.4-0.3-2.1-1.6-1.8-3.3C13,17.6,24.7,6.6,39.1,5   c17.6-2.1,33.6,10,36.5,27.5C75.7,32.6,75.7,32.8,75.7,32.9z"></path>
	<path class="st0" d="M9.9,50.9c0-2.5,0-5,0-7.5c0-2,0.9-3,2.9-3c1.6,0,3.3-0.1,4.9,0c4.1,0.1,7.3,3.1,7.4,7.1   c0.2,3.8,0.2,7.6,0,11.5c-0.3,4.1-3.7,7.2-7.8,7c-4.1-0.1-7.3-3.4-7.4-7.5C9.8,55.9,9.9,53.4,9.9,50.9L9.9,50.9z M14.9,45.6   c0,4.3,0,8.4,0,12.5c0,1.4,1.1,2.5,2.5,2.5h0c1.4,0,2.5-1.1,2.5-2.5c0-3.3,0-6.6,0-10c0.1-1.3-0.9-2.3-2.1-2.5   C16.9,45.5,15.9,45.5,14.9,45.6"></path>
	<path class="st1" d="M56.1,17.4c0,2.2-2,3.3-4,2.3c-3.1-1.6-6.5-2.3-10-2.2c-2.8,0.1-5.5,0.8-8,2c-1.8,0.8-3.2,0.5-3.9-0.9   c-0.7-1.5-0.1-2.9,1.7-3.7c7.4-3.3,14.8-3.3,22.1,0C55.3,15.5,56.1,16.2,56.1,17.4"></path>
	<path class="st2" d="M56.1,17.4c0,2.2-2,3.3-4,2.3c-3.1-1.6-6.5-2.3-10-2.2c-2.8,0.1-5.5,0.8-8,2c-1.8,0.8-3.2,0.5-3.9-0.9   c-0.7-1.5-0.1-2.9,1.7-3.7c7.4-3.3,14.8-3.3,22.1,0C55.3,15.5,56.1,16.2,56.1,17.4z"></path>
</g>
</svg>