<svg xmlns="http://www.w3.org/2000/svg" xmlns:xlink="http://www.w3.org/1999/xlink" id="Layer_1" x="0px" y="0px" width="86px" height="86px" viewBox="0 0 86 86" style="enable-background:new 0 0 86 86;" xml:space="preserve">
<style type="text/css">
	.st0{fill:#1EF0BB;}
	.st1{fill:#943FF8;}
</style>
<path class="st0" d="M20.8,78.6L14.7,54c-2,0.5-3.9,1-5.8,1.4c-0.5,0.2-1,0.3-1.6,0.3C6.2,56,5.2,55.2,5,54.1c0,0,0,0,0,0  c-0.3-1,0.3-2,1.3-2.3c0,0,0,0,0.1,0c3.2-0.9,6.3-1.6,9.5-2.3c1-0.2,2,0.4,2.3,1.4c0.2,0.5,0.3,1,0.5,1.6c0.6-0.5,1.1-1,1.7-1.4  c3.2-2.5,7.2-3.9,11.3-3.8c6.9,0,13.7,0,20.6,0c3.1,0,5.4,1.4,7.2,4.5c0.7-0.9,1.3-1.6,1.9-2.3c2.9-2.9,5.7-5.8,8.6-8.6  c1.9-1.9,4.7-2.5,7.2-1.6c2.5,0.8,4.4,3.1,4.6,5.7c0.4,2-0.3,4.1-1.7,5.6c-6.7,6.8-13.5,13.6-20.3,20.2c-2.6,2.4-6.1,3.8-9.7,3.6  c-6.4,0-12.8,0.1-19.2,0c-1.7-0.2-3.3,0.5-4.3,1.8c-0.9,1.1-1.8,1.9-1.2,3.5c0.3,0.9-0.2,1.9-1.2,2.2c-0.1,0-0.1,0-0.2,0.1  c-3.1,0.9-6.2,1.6-9.4,2.4c-1.1,0.2-2.2-0.5-2.4-1.6c-0.2-1.1,0.5-2.2,1.6-2.4C16,79.8,18.3,79.3,20.8,78.6 M23.8,73.1  c0.4-0.3,0.7-0.6,1.1-0.9c1.1-1.5,2.5-1.9,4.4-1.8c6.7,0.1,13.4,0,20.1,0.1c3.4,0.1,6.6-1.2,8.9-3.7c6-6.1,12.1-12.1,18.2-18.2  c0.3-0.3,0.6-0.6,0.9-1c0.8-1.1,0.6-2.7-0.4-3.6c-1-1-2.5-1.1-3.6-0.2c-0.6,0.5-1.1,1-1.6,1.5c-4.5,4.5-8.9,9.1-13.4,13.6  c-1.4,1.6-3.4,2.5-5.6,2.6c-4.1,0-8.1,0-12.2,0c-0.2,0-0.5,0-0.7,0c-1.1-0.2-1.8-1.1-1.8-2.2c0.1-1.2,1.2-2,2.3-1.9c0,0,0,0,0,0  c4.1,0,8.1,0,12.2,0c1.6,0.1,2.9-1.1,3-2.6c0,0,0-0.1,0-0.1c0-1.5-1.2-2.8-2.7-2.9c-0.1,0-0.1,0-0.2,0c-7.4,0-14.9-0.1-22.3,0.1  c-3.1,0-5.7,1.5-8.1,3.4c-1.9,1.5-2.5,3-1.7,5.5C21.8,64.6,22.7,68.8,23.8,73.1"></path>
<path class="st1" d="M52,43.1c-5.5,0-10-4.4-10-9.9c0-5.5,4.4-10,9.9-10c5.5,0,10,4.4,10,9.9C62,38.6,57.6,43.1,52,43.1L52,43.1z   M52.1,39c3.2-0.1,5.7-2.7,5.7-5.9c-0.1-3.2-2.7-5.7-5.9-5.7c-3.2,0.1-5.7,2.6-5.7,5.8C46.3,36.4,48.9,39,52.1,39L52.1,39z"></path>
<path class="st1" d="M33.3,28.7c-4.6,0-8.4-3.8-8.4-8.4c0.1-4.6,3.7-8.3,8.3-8.4c4.6-0.1,8.5,3.6,8.5,8.3c0,0,0,0.1,0,0.1  C41.7,25,37.9,28.7,33.3,28.7 M33.3,24.5c2.3,0,4.2-1.9,4.2-4.2c0-2.3-1.9-4.2-4.2-4.2c-2.4,0-4.3,1.9-4.2,4.3c0,0,0,0,0,0  C29.1,22.7,31,24.6,33.3,24.5L33.3,24.5z"></path>
<path class="st1" d="M59.9,10.4c0,4.4-3.6,7.9-8,7.9c-4.4,0-8-3.7-8-8.1v0c0.1-4.4,3.6-7.9,8-7.9C56.4,2.3,60,5.9,59.9,10.4  L59.9,10.4z M52,14c2.1,0,3.8-1.8,3.7-3.8c0,0,0,0,0-0.1c-0.1-2.1-1.8-3.7-3.8-3.7c-2.1,0.1-3.8,1.8-3.7,3.9  C48.3,12.4,50,14.1,52,14L52,14z"></path>
<path class="st0" d="M16.6,75c0,1.2-0.9,2.2-2.1,2.2c-1.3,0-2.2-1.2-2.3-2.8c-0.1-1.2,0.8-2.2,1.9-2.3c0,0,0,0,0.1,0  C15.6,72.1,16.6,73.3,16.6,75"></path>
</svg>