<svg xmlns="http://www.w3.org/2000/svg" xmlns:xlink="http://www.w3.org/1999/xlink" id="Layer_1" x="0px" y="0px" width="86px" height="86px" viewBox="0 0 86 86" style="enable-background:new 0 0 86 86;" xml:space="preserve">
<style type="text/css">
	.st0{fill:#943FF8;}
	.st1{fill:#1EF0BB;}
</style>
<g>
	<path class="st0" d="M69.5,50.1c3.2,3.4,6.3,6.7,9.5,10c3.5,3.5,3.5,9.2,0.1,12.7c-1.1,1.1-2.5,2-4.1,2.4c-4.2,1.1-8.5-1-10.3-4.9   c-1.7-3.7-3.3-7.5-5-11.2c-0.2-0.5-0.4-0.9-0.7-1.5c-8.5,2.9-16.6,2.3-24.2-2.5c-5.3-3.3-9.2-8.4-11.1-14.3   c-4-12.1,1.2-25.3,12.3-31.5C46.8,3,60.6,5.2,69,14.5C78,24.6,78.2,39.8,69.5,50.1 M26.3,32.7c0.1,12.6,10.3,22.7,22.9,22.7   C61.8,55.3,72,45.1,72,32.4c0-12.6-10.2-22.8-22.8-22.8c-12.6,0-22.8,10.2-22.9,22.8C26.3,32.6,26.3,32.6,26.3,32.7 M62.5,55.9   c2,4.4,3.8,8.7,5.8,12.9c0.7,1.5,2.1,2.5,3.8,2.6c2.1,0.3,4.1-0.8,5-2.7c1-1.8,0.8-4-0.7-5.5c-2-2.1-4.2-4.1-6.2-6.2   c-1.3-1.3-2.4-2.7-3.6-4L62.5,55.9z"></path>
	<path class="st1" d="M8.4,60.2H11c2.8,0,5.5,0,8.3,0c3.3,0,5.1,1.8,5.2,5.1c0.1,3.2,0.1,6.4,0,9.6c0,1,0.3,1.4,1.3,1.4   c8.1,0,16.3,0,24.4,0c1.7,0,2.2-0.5,2.2-2.2c0-2.2,0-4.4,0-6.6c0-1.4,0.8-2.4,1.9-2.4c1.1,0,1.9,0.9,2,2.3c0,2.3,0,4.6,0,6.9   c0,3.7-2.2,5.9-5.9,5.9c-6.2,0-12.3,0-18.5,0c-2.8,0-5.7,0-8.5,0c-1.1,0.1-2.1-0.4-2.8-1.1c-5-5-10-10-15-15   c-0.7-0.7-1.1-1.7-1.1-2.7c0-14.2,0-28.4,0-42.6c0-3.8,2.2-6.1,6.1-6.1c2.5,0,5,0,7.4,0c1.5,0,2.4,0.7,2.4,1.9   c0.1,1.2-0.9,2-2.4,2.1c-2.5,0-5,0-7.4,0c-1.6,0-2.2,0.5-2.2,2.1c0,13.5,0,27,0,40.5C8.4,59.6,8.4,59.8,8.4,60.2 M11.9,64.2   l8.6,8.6c0-2.3,0-5,0-7.6c-0.1-0.5-0.5-0.8-0.9-1C16.9,64.1,14.3,64.2,11.9,64.2"></path>
	<path class="st1" d="M53.5,38.2c0-1.1-0.6-2-1.6-2.5c-1.2-0.6-2.6-1-3.8-1.5c-1-0.3-1.9-0.6-2.8-1c-2.9-1.4-4.6-3.6-4.4-7   c0.1-3.1,2.1-5.8,5-6.7c0.9-0.2,1.5-1,1.4-2c-0.2-1.1,0.6-2.1,1.6-2.3c0.1,0,0.2,0,0.3,0c1.1,0,1.9,0.9,1.9,2c0,0.1,0,0.2,0,0.2   c-0.1,1.2,0.4,1.7,1.5,2.2c1.8,0.7,3.2,2.1,4,3.8c0.7,1,0.4,2.3-0.5,3c0,0-0.1,0-0.1,0.1c-1,0.6-2.1,0.1-2.8-1.1   c-1.2-2.3-3.9-3.2-6.2-2c0,0,0,0,0,0c-1.3,0.5-2.1,1.8-2.1,3.1c-0.1,1.3,0.6,2.6,1.9,3.1c1,0.4,2,0.8,3.1,1.1   c1.2,0.4,2.4,0.8,3.6,1.3c2.8,1.5,4.4,3.7,4.1,7c-0.1,3.1-2.2,5.8-5.1,6.7c-0.8,0.1-1.4,0.9-1.2,1.7c0,0,0,0,0,0   c0,1.5-0.8,2.5-2,2.5c-1.2,0-2-1-1.9-2.5c0.1-0.8-0.4-1.6-1.2-1.8c-1.9-0.7-3.4-2.1-4.3-3.9c-0.7-1.3-0.4-2.4,0.6-3   c1-0.6,2.1-0.1,2.9,1.1c1.5,2.4,3.9,3.2,6.2,2.1C52.8,41.1,53.6,39.7,53.5,38.2"></path>
</g>
</svg>